<?xml version="1.0" encoding="UTF-8" standalone="no"?>
<!-- Created with Inkscape (http://www.inkscape.org/) -->

<svg
   width="1920"
   height="1080"
   viewBox="0 0 1920 1080"
   version="1.1"
   id="svg1"
   inkscape:version="1.4.2 (ebf0e940d0, 2025-05-08)"
   sodipodi:docname="7781-strahlen.svg"
   inkscape:export-filename="7781-strahlen-plain.svg"
   inkscape:export-xdpi="96"
   inkscape:export-ydpi="96"
   xmlns:inkscape="http://www.inkscape.org/namespaces/inkscape"
   xmlns:sodipodi="http://sodipodi.sourceforge.net/DTD/sodipodi-0.dtd"
   xmlns:xlink="http://www.w3.org/1999/xlink"
   xmlns="http://www.w3.org/2000/svg"
   xmlns:svg="http://www.w3.org/2000/svg">
  <sodipodi:namedview
     id="namedview1"
     pagecolor="#505050"
     bordercolor="#eeeeee"
     borderopacity="1"
     inkscape:showpageshadow="0"
     inkscape:pageopacity="0"
     inkscape:pagecheckerboard="0"
     inkscape:deskcolor="#505050"
     inkscape:document-units="px"
     showguides="true"
     inkscape:zoom="0.39055547"
     inkscape:cx="829.58766"
     inkscape:cy="619.63029"
     inkscape:window-width="1600"
     inkscape:window-height="831"
     inkscape:window-x="0"
     inkscape:window-y="0"
     inkscape:window-maximized="1"
     inkscape:current-layer="layer2">
    <sodipodi:guide
       position="960,1742.6487"
       orientation="-1,0"
       id="guide1"
       inkscape:locked="false"
       inkscape:label=""
       inkscape:color="rgb(0,134,229)" />
    <sodipodi:guide
       position="1423.6134,540"
       orientation="0,1"
       id="guide2"
       inkscape:locked="false"
       inkscape:label=""
       inkscape:color="rgb(0,134,229)" />
  </sodipodi:namedview>
  <defs
     id="defs1">
    <linearGradient
       id="linearGradient437"
       inkscape:collect="always">
      <stop
         style="stop-color:#ffffff;stop-opacity:1;"
         offset="0.49012792"
         id="stop437" />
      <stop
         style="stop-color:#aaaaaa;stop-opacity:0;"
         offset="1"
         id="stop438" />
    </linearGradient>
    <radialGradient
       inkscape:collect="always"
       xlink:href="#linearGradient437"
       id="radialGradient438"
       cx="960"
       cy="540"
       fx="960"
       fy="540"
       r="487.77042"
       gradientTransform="matrix(1.3464541,0,0,1.2835792,-332.59597,-153.13275)"
       gradientUnits="userSpaceOnUse" />
  </defs>
  <g
     inkscape:groupmode="layer"
     id="layer2"
     inkscape:label="Ebene 2"
     style="display:inline">
    <path
       style="fill:#ffaa00;fill-opacity:1;stroke:#bbbbbb;stroke-width:16;stroke-linecap:round;stroke-linejoin:round;stroke-dasharray:none;stroke-opacity:1"
       d="M 959.8651,540.16917 1919.2243,439.16838 1920,639.65593 Z"
       id="path415"
       sodipodi:nodetypes="cccc" />
    <path
       style="fill:#ffaa00;fill-opacity:1;stroke:#bbbbbb;stroke-width:16;stroke-linecap:round;stroke-linejoin:round;stroke-dasharray:none;stroke-opacity:1"
       d="m 960,540 960,203.61774 v 223.52552 z"
       id="path416"
       sodipodi:nodetypes="cccc" />
    <path
       style="fill:#ffaa00;fill-opacity:1;stroke:#bbbbbb;stroke-width:16;stroke-linecap:round;stroke-linejoin:round;stroke-dasharray:none;stroke-opacity:1"
       d="M 959.75165,540.06854 1894.9404,1080 H 1559.624 Z"
       id="path417" />
    <path
       style="fill:#ffaa00;fill-opacity:1;stroke:#bbbbbb;stroke-width:16;stroke-linecap:round;stroke-linejoin:round;stroke-dasharray:none;stroke-opacity:1"
       d="M 959.74923,540.02826 1447.6693,1081.7273 1270.5293,1080 Z"
       id="path419" />
    <path
       style="fill:#ffaa00;fill-opacity:1;stroke:#bbbbbb;stroke-width:16;stroke-linecap:round;stroke-linejoin:round;stroke-dasharray:none;stroke-opacity:1"
       d="m 960,540 241.5564,540 h -126.165 z"
       id="path421"
       sodipodi:nodetypes="cccc" />
    <path
       style="fill:#ffaa00;fill-opacity:1;stroke:#bbbbbb;stroke-width:16;stroke-linecap:round;stroke-linejoin:round;stroke-dasharray:none;stroke-opacity:1"
       d="m 960,540 56.722,540.4891 -113.48217,-1.1856 z"
       id="path422"
       sodipodi:nodetypes="cccc" />
    <path
       style="fill:#ffaa00;fill-opacity:1;stroke:#bbbbbb;stroke-width:16;stroke-linecap:round;stroke-linejoin:round;stroke-dasharray:none;stroke-opacity:1"
       d="M 959.85175,540.16715 845.29509,1079.3054 720.76829,1080 Z"
       id="path423" />
    <path
       style="fill:#ffaa00;fill-opacity:1;stroke:#bbbbbb;stroke-width:16;stroke-linecap:round;stroke-linejoin:round;stroke-dasharray:none;stroke-opacity:1"
       d="M 959.89206,540.16896 647.64271,1080.9291 H 472.91449 Z"
       id="path424" />
    <path
       style="fill:#ffaa00;fill-opacity:1;stroke:#bbbbbb;stroke-width:16;stroke-linecap:round;stroke-linejoin:round;stroke-dasharray:none;stroke-opacity:1"
       d="M 960,540 358.83853,1081.2737 0,1080 Z"
       id="path425" />
    <path
       style="fill:#ffaa00;fill-opacity:1;stroke:#bbbbbb;stroke-width:16;stroke-linecap:round;stroke-linejoin:round;stroke-dasharray:none;stroke-opacity:1"
       d="M 959.89206,540.16896 0,969.1325 1.0252069,743.89284 Z"
       id="path426" />
    <path
       style="fill:#ffaa00;fill-opacity:1;stroke:#bbbbbb;stroke-width:16;stroke-linecap:round;stroke-linejoin:round;stroke-dasharray:none;stroke-opacity:1"
       d="M 960,540 0,640.11394 V 438.47805 Z"
       id="path427" />
    <path
       style="fill:#ffaa00;fill-opacity:1;stroke:#bbbbbb;stroke-width:16;stroke-linecap:round;stroke-linejoin:round;stroke-dasharray:none;stroke-opacity:1"
       d="M 961.95787,540.49772 0.61909842,336.18578 0,112.97283 Z"
       id="path428"
       sodipodi:nodetypes="cccc" />
    <path
       style="fill:#ffaa00;fill-opacity:1;stroke:#bbbbbb;stroke-width:16;stroke-linecap:round;stroke-linejoin:round;stroke-dasharray:none;stroke-opacity:1"
       d="M 960,540 24.692564,0 H 360.04063 Z"
       id="path429" />
    <path
       style="fill:#ffaa00;fill-opacity:1;stroke:#bbbbbb;stroke-width:16;stroke-linecap:round;stroke-linejoin:round;stroke-dasharray:none;stroke-opacity:1"
       d="M 960,540 472.72848,-0.93220302 h 174.77115 z"
       id="path430" />
    <path
       style="fill:#ffaa00;fill-opacity:1;stroke:#bbbbbb;stroke-width:16;stroke-linecap:round;stroke-linejoin:round;stroke-dasharray:none;stroke-opacity:1"
       d="M 960,540 719.48807,0 h 126.74255 z"
       id="path431" />
    <path
       style="fill:#ffaa00;fill-opacity:1;stroke:#bbbbbb;stroke-width:16;stroke-linecap:round;stroke-linejoin:round;stroke-dasharray:none;stroke-opacity:1"
       d="M 960,540 902.99467,0 h 113.60983 z"
       id="path432" />
    <path
       style="fill:#ffaa00;fill-opacity:1;stroke:#bbbbbb;stroke-width:16;stroke-linecap:round;stroke-linejoin:round;stroke-dasharray:none;stroke-opacity:1"
       d="M 959.98254,540.11582 1074.8633,-1.120365 1198.2933,0 Z"
       id="path433" />
    <path
       style="fill:#ffaa00;fill-opacity:1;stroke:#bbbbbb;stroke-width:16;stroke-linecap:round;stroke-linejoin:round;stroke-dasharray:none;stroke-opacity:1"
       d="M 959.75939,539.9892 1271.9712,-0.60270248 1444.097,0 Z"
       id="path434" />
    <path
       style="fill:#ffaa00;fill-opacity:1;stroke:#bbbbbb;stroke-width:16;stroke-linecap:round;stroke-linejoin:round;stroke-dasharray:none;stroke-opacity:1"
       d="M 960,540 1558.7689,0.74173855 h 335.1205 z"
       id="path435" />
    <path
       style="fill:#ffaa00;fill-opacity:1;stroke:#bbbbbb;stroke-width:16;stroke-linecap:round;stroke-linejoin:round;stroke-dasharray:none;stroke-opacity:1"
       d="M 959.80258,540.1457 1920,112.96061 v 223.7953 z"
       id="path436"
       sodipodi:nodetypes="cccc" />
  </g>
  <g
     inkscape:groupmode="layer"
     id="layer3"
     inkscape:label="Ebene 3"
     style="display:inline">
    <ellipse
       style="fill:url(#radialGradient438);fill-opacity:0.666667;fill-rule:nonzero;stroke:none;stroke-width:22.1674;stroke-linecap:round;stroke-linejoin:round;stroke-dasharray:none;stroke-opacity:1"
       id="path437"
       cx="960"
       cy="540"
       rx="656.7605"
       ry="626.09198" />
  </g>
  <g
     inkscape:groupmode="layer"
     id="layer4"
     inkscape:label="Ebene 4">
    <path
       style="font-size:500px;font-family:'HEY LOUIE';-inkscape-font-specification:'HEY LOUIE';stroke:#ffffff;stroke-width:24;stroke-linecap:round;stroke-linejoin:round"
       d="m 71.526855,361.94501 c 0,19 7,32 25.5,47.5 7.000005,5.5 8.000005,10 7.500005,14.5 -1,4.5 -7.000005,9.5 -19.500005,15 -12,5 -16,21 -10,35.5 5.5,13 18,19 32.000005,19 41.5,0 90.5,-60 90.5,-121.5 0,-43 -23.5,-68.5 -62.5,-68.5 -37.000005,0 -63.500005,24.5 -63.500005,58.5 z m 297.499575,373.5 c 71,0 103,-12 103,-52 0,-105.5 70,-230.5 70,-302.5 0,-53.5 -24.5,-77.5 -80,-77.5 -32.5,0 -64,6 -96.5,5 -60,-2 -107,-16 -136,0 -21.5,12 -31,54.5 -25,108.5 5.5,48.5 25.5,72 58.5,72 56.5,0 36.5,-76 58,-76 h 43 c 12.5,0 21.5,7.5 20.5,21.5 -0.5,11 -4,23.5 -10.5,40 -23.5,60.5 -118.5,97 -108,198 4,38.5 30,63 103,63 z m 344.49957,0 c 71,0 103,-12 103,-52 0,-105.5 70,-230.5 70,-302.5 0,-53.5 -24.5,-77.5 -80,-77.5 -32.5,0 -64,6 -96.5,5 -60,-2 -107,-16 -136,0 -21.5,12 -31,54.5 -25,108.5 5.5,48.5 25.5,72 58.5,72 56.5,0 36.5,-76 58,-76 h 43 c 12.5,0 21.5,7.5 20.5,21.5 -0.5,11 -4,23.5 -10.5,40 -23.5,60.5 -118.5,97 -108,198 4,38.5 30,63 103,63 z m 307.9997,-373.5 c 0,19 7,32 25.5,47.5 7,5.5 8,10 7.5,14.5 -1,4.5 -7,9.5 -19.5,15 -12,5 -16,21 -10,35.5 5.5,13 18,19 32,19 41.5,0 90.5,-60 90.5,-121.5 0,-43 -23.5,-68.5 -62.5,-68.5 -37,0 -63.5,24.5 -63.5,58.5 z m 186.9996,144.5 c -36.5,20.5 -53.5,53.5 -53.5,101.5 0,86 64,127.5 196.5,127.5 132.5,0 196.5,-41.5 196.5,-127.5 0,-48 -17,-81 -53.5,-101.5 -9.5,-5.5 -9.5,-8.5 -0.5,-15 23.5,-16.5 34,-40.5 34,-73.5 0,-78.5 -58,-114.5 -176.5,-114.5 -118.5,0 -176.5,36 -176.5,114.5 0,33 10.5,57 34,73.5 9,6.5 9,9.5 -0.5,15 z m 143.5,36.5 c 32.5,0 51,12.5 51,35 0,26 -16,37.5 -51.5,37.5 -35.5,0 -51.5,-11.5 -51.5,-37.5 0,-22.5 19,-35 52,-35 z m -0.5,-147 c 26.5,0 41.5,11.5 41.5,32 0,25 -13.5,36 -41.5,36 -28,0 -41.5,-11 -41.5,-36 0,-20.5 15,-32 41.5,-32 z m 361.4998,339.5 c 71,0 99.5,-12 103,-52 9.5,-101 -28,-101 -28,-208 0,-61.5 12.5,-65.5 12.5,-113.5 0,-35.5 -34,-58.5 -87.5,-58.5 -47.5,0 -110.5,10 -141.5,50 -20.5,26.5 -21,71.5 -1,85 16,11 33,4 47,-3.5 9.5,-5 17,-3.5 19,5 2,10.5 1.5,23.5 1.5,39.5 0,83 -38.5,103 -28,204 4,40 32.5,52 103,52 z"
       id="text438"
       aria-label="'77 '81" />
  </g>
</svg>
