<?xml version="1.0" encoding="UTF-8" standalone="no"?>
<!-- Created with Inkscape (http://www.inkscape.org/) -->

<svg
   width="882.76294"
   height="291.61377"
   viewBox="0 0 882.76294 291.61377"
   version="1.1"
   id="svg1"
   xml:space="preserve"
   xmlns="http://www.w3.org/2000/svg"
   xmlns:svg="http://www.w3.org/2000/svg"><defs
     id="defs1" /><g
     id="layer1"
     transform="translate(-386.12991,-394.49585)"><path
       style="font-weight:bold;font-size:110px;font-family:Literal;-inkscape-font-specification:'Literal Bold';fill:#dddddd;stroke-width:16;stroke-linecap:round;stroke-linejoin:round"
       d="m 518.34984,481.36994 c -9.68,-1.87 -12.1,-3.08 -12.1,-6.27 0,-3.41 2.53,-4.95 9.9,-4.95 6.93,0 8.69,1.54 10.23,5.28 h 16.17 c -2.75,-11.88 -12.21,-18.26 -26.95,-18.26 -14.3,0 -26.62,5.61 -26.62,18.04 0,13.42 14.74,17.05 25.52,19.14 9.46,1.87 11.11,2.64 11.11,6.82 0,3.63 -3.41,4.84 -10.89,4.84 -8.69,0 -10.56,-2.31 -11.66,-6.49 h -16.17 c 3.08,13.09 11.99,19.47 28.38,19.47 13.97,0 27.83,-4.95 27.83,-18.92 0,-13.09 -13.42,-16.5 -24.75,-18.7 z m 76.77991,8.8 v 1.87 c 0,10.78 -2.64,13.09 -8.8,13.09 -6.05,0 -8.8,-2.31 -8.8,-13.09 v -19.58 h 28.6 v -13.86 h -28.6 v -15.07 h -17.05 v 15.07 h -11.66 v 13.86 h 11.66 v 19.58 c 0,14.52 8.91,26.95 25.85,26.95 16.94,0 25.85,-12.43 25.85,-26.95 v -1.87 z m 56.21008,15.62 c -8.25,0 -13.2,-3.52 -14.19,-13.31 h 43.23 c 0.33,-1.98 0.55,-3.96 0.55,-6.38 0,-15.62 -11.66,-28.93 -29.7,-28.93 -18.7,0 -31.24,13.42 -31.24,30.8 0,16.83 12.65,31.02 31.35,31.02 15.73,0 24.64,-6.71 27.83,-18.81 h -16.5 c -1.32,4.29 -4.07,5.61 -11.33,5.61 z m -0.22,-35.42 c 8.36,0 12.43,3.85 12.87,11.99 h -26.51 c 0.55,-8.69 5.5,-11.99 13.64,-11.99 z m 40.04008,-11.77 v 81.4 h 17.05 v -30.14 c 3.19,5.17 8.91,9.13 17.93,9.13 16.72,0 31.02,-13.42 31.02,-31.35 0,-17.93 -13.53,-30.47 -31.02,-30.47 -8.58,0 -14.52,4.18 -17.93,9.13 v -7.7 z m 17.05,24.86 c 2.42,-9.57 7.26,-12.43 16.83,-12.43 9.79,0 14.41,4.51 14.41,16.61 0,12.1 -5.39,17.49 -14.41,17.49 -10.23,-0.11 -14.41,-2.86 -16.83,-12.43 z m 76.23007,34.1 v -33.55 c 1.43,-7.92 5.61,-12.98 13.42,-12.98 6.6,0 8.8,2.53 8.8,14.74 v 31.79 h 17.05 v -33.66 c 0,-16.28 -7.37,-26.73 -22,-26.73 -6.6,0 -13.86,3.74 -17.27,8.58 v -36.85 h -17.05 v 88.66 z m 109.78007,-13.86 c -2.86,0 -4.62,-1.1 -4.62,-4.95 v -18.37 c 0,-14.74 -9.79,-23.21 -27.61,-23.21 -12.65,0 -22.44,5.06 -26.62,18.15 h 16.61 c 1.43,-4.29 4.4,-5.17 10.12,-5.17 8.25,0 10.45,2.75 10.45,9.57 v 4.4 c -3.3,-1.65 -7.48,-2.97 -13.2,-2.97 -12.65,0 -26.18,5.61 -26.18,18.59 0,13.2 11.77,19.25 23.87,19.25 9.57,0 17.71,-3.52 20.35,-8.58 2.53,4.62 6.05,7.15 15.73,7.15 h 2.53 v -13.86 z m -21.67,-2.86 c -3.19,4.29 -6.71,5.17 -13.31,5.17 -6.38,0 -8.58,-2.09 -8.58,-6.93 0,-5.17 2.2,-7.26 9.24,-7.26 6.93,0 9.68,1.21 12.65,3.3 z m 48.17997,16.72 v -33.55 c 1.43,-7.92 5.61,-12.98 13.42,-12.98 6.6,0 8.8,2.53 8.8,14.74 v 31.79 h 17.05 v -33.66 c 0,-16.28 -7.37,-26.73 -22,-26.73 -6.6,0 -13.86,3.74 -17.27,8.58 v -7.15 h -17.05 v 58.96 z"
       id="text2"
       aria-label="stephan" /><path
       d="m 430.23991,606.87997 c -0.99,6.93 -4.4,9.35 -12.65,9.35 -8.58,0 -13.75,-5.06 -13.75,-16.94 0,-13.09 4.84,-17.16 13.42,-17.16 8.14,0 11.66,2.75 12.54,8.91 h 17.05 c -3.85,-14.63 -13.2,-22.77 -29.59,-22.77 -18.7,0 -31.13,13.2 -31.13,31.02 0,16.94 13.31,30.8 31.46,30.8 16.61,0 26.18,-8.25 29.7,-23.21 z m 35.20003,-64.13 c -6.38,0 -8.91,2.42 -8.91,7.59 v 3.3 c 0,5.06 2.53,7.48 8.91,7.48 6.38,0 8.91,-2.42 8.91,-7.48 v -3.3 c 0,-5.17 -2.53,-7.59 -8.91,-7.59 z m -8.47,26.95 v 58.96 h 17.05 v -58.96 z m 58.62999,47.19 c -8.25,0 -13.2,-3.52 -14.19,-13.31 h 43.23 c 0.33,-1.98 0.55,-3.96 0.55,-6.38 0,-15.62 -11.66,-28.93 -29.7,-28.93 -18.7,0 -31.24,13.42 -31.24,30.8 0,16.83 12.65,31.02 31.35,31.02 15.73,0 24.64,-6.71 27.83,-18.81 h -16.5 c -1.32,4.29 -4.07,5.61 -11.33,5.61 z m -0.22,-35.42 c 8.36,0 12.43,3.85 12.87,11.99 h -26.51 c 0.55,-8.69 5.5,-11.99 13.64,-11.99 z m 68.42005,11 c -9.68,-1.87 -12.1,-3.08 -12.1,-6.27 0,-3.41 2.53,-4.95 9.9,-4.95 6.93,0 8.69,1.54 10.23,5.28 h 16.17 c -2.75,-11.88 -12.21,-18.26 -26.95,-18.26 -14.3,0 -26.62,5.61 -26.62,18.04 0,13.42 14.74,17.05 25.52,19.14 9.46,1.87 11.11,2.64 11.11,6.82 0,3.63 -3.41,4.84 -10.89,4.84 -8.69,0 -10.56,-2.31 -11.66,-6.49 h -16.17 c 3.08,13.09 11.99,19.47 28.38,19.47 13.97,0 27.83,-4.95 27.83,-18.92 0,-13.09 -13.42,-16.5 -24.75,-18.7 z m 82.39,-22.77 h -48.07 v 13.86 h 27.17 l -29.37,33.22 v 11.88 h 51.26 v -13.86 h -30.25 l 29.26,-33.11 z m 54.55993,0 -15.62,41.91 -15.73,-41.91 h -17.49 l 24.75,58.85 c -3.3,8.14 -4.51,10.01 -10.67,10.01 -2.86,0 -5.28,-0.22 -7.26,-0.55 v 13.86 c 2.75,0.33 7.04,0.55 11.22,0.55 12.32,0 17.38,-8.14 23.87,-23.87 l 24.09,-58.85 z m 41.25004,58.96 v -33.55 c 1.43,-7.92 5.61,-12.98 13.42,-12.98 6.6,0 8.8,2.53 8.8,14.74 v 31.79 h 17.05 v -33.66 c 0,-16.28 -7.37,-26.73 -22,-26.73 -6.6,0 -13.86,3.74 -17.27,8.58 v -7.15 h -17.05 v 58.96 z m 79.97004,-36.19 c -9.68,-1.87 -12.1,-3.08 -12.1,-6.27 0,-3.41 2.53,-4.95 9.9,-4.95 6.93,0 8.69,1.54 10.23,5.28 h 16.17 c -2.75,-11.88 -12.21,-18.26 -26.95,-18.26 -14.3,0 -26.62,5.61 -26.62,18.04 0,13.42 14.74,17.05 25.52,19.14 9.46,1.87 11.11,2.64 11.11,6.82 0,3.63 -3.41,4.84 -10.89,4.84 -8.69,0 -10.56,-2.31 -11.66,-6.49 h -16.17 c 3.08,13.09 11.99,19.47 28.38,19.47 13.97,0 27.83,-4.95 27.83,-18.92 0,-13.09 -13.42,-16.5 -24.75,-18.7 z m 70.18,0.44 22,-23.21 h -21.23 l -19.25,21.01 v -50.71 h -17.05 v 88.66 h 17.05 v -19.25 l 6.38,-6.49 16.06,25.74 h 19.69 z m 38.94006,-50.16 c -6.38,0 -8.91,2.42 -8.91,7.59 v 3.3 c 0,5.06 2.53,7.48 8.91,7.48 6.38,0 8.91,-2.42 8.91,-7.48 v -3.3 c 0,-5.17 -2.53,-7.59 -8.91,-7.59 z m -8.47,26.95 v 58.96 h 17.05 v -58.96 z"
       id="text3"
       style="font-weight:bold;font-size:110px;font-family:Literal;-inkscape-font-specification:'Literal Bold';fill:#dddddd;stroke-width:16;stroke-linecap:round;stroke-linejoin:round"
       aria-label="cieszynski" /></g><g
     id="layer15"
     transform="translate(615.74929)"><g
       id="layer14"
       transform="translate(-68.736031,-10.523622)"
       style="display:none"><circle
         style="display:inline;opacity:1;fill:#0000ff;fill-opacity:1;stroke:#ffffff;stroke-width:0;stroke-linejoin:miter;stroke-dasharray:none;paint-order:normal"
         id="circle24"
         cx="185.07556"
         cy="133.86644"
         r="111.46246"
         transform="matrix(1.1085434,0,0,1.1206531,-2.9214352,17.154321)" /></g><g
       id="layer11"
       style="display:inline"
       transform="translate(-68.736031,-10.523622)"><path
         style="opacity:1;fill:#aaaaaa;fill-opacity:1;stroke:none;stroke-width:0.0755906;stroke-linejoin:round;stroke-dasharray:none;stroke-opacity:1"
         d="m 110.07512,235.67336 c 0.90096,3.5195 1.71406,7.11431 2.96895,10.33045 1.81858,3.44871 4.07736,6.51812 6.4572,9.16161 3.50085,3.52001 7.02306,6.98309 10.6819,10.08179 l 7.04126,5.601 1.28453,6.63434 c 2.23259,4.12182 1.47596,-6.63434 1.47596,-6.63434 -0.68012,-0.77347 -1.14687,-1.65363 -1.40025,-2.64047 -0.33157,-1.32613 -0.26489,-2.513 0.20003,-3.56063 0.84316,-1.09643 1.69665,-1.68321 2.56046,-1.76032 1.4936,-0.0133 2.8005,0.24005 3.9207,0.76014 0.90683,0.81348 1.20021,2.10704 0.88015,3.88069 -0.13336,0.89349 -0.26671,1.4936 -0.40007,1.80032 0.08,0.64011 0.32006,1.17354 0.72013,1.60028 l 1.52499,14.56921 8.54033,-2.27676 12.38315,4.23249 12.92744,-2.74707 0.27044,-5.61638 -20.12359,-12.80228 -5.96106,-4.88087 -6.36113,-5.0409 -9.32166,-6.72119 -5.601,-4.24076 c -3.14722,-2.60046 -5.65433,-5.14758 -7.52133,-7.64136 -2.20039,-3.13389 -3.78734,-6.50782 -4.76085,-10.1218 -0.62678,-2.14705 -1.06686,-4.08072 -1.32024,-5.80103 -0.43286,-4.07744 -0.82,-7.88055 -1.20021,-11.64208 0.0477,-3.55059 -0.18677,-6.43098 0.24004,-10.88193 0.20004,-2.28041 0.29339,-4.40078 0.28005,-6.36113 0.0266,-3.18925 0.50064,-5.99489 0.88016,-8.88159 0.40758,-3.12414 0.79419,-6.24199 1.7203,-9.52169 0.78816,-3.18909 1.41406,-6.47554 2.44044,-9.5217 l 2.44039,-6.92123 c -0.20763,-2.66242 -0.33717,-4.6449 -0.36625,-7.96127 l -0.081,-5.60197 c -0.99813,2.58507 -2.5258,4.97813 -3.83344,7.20211 -1.47277,2.69679 -2.52514,5.45363 -3.64065,8.20146 -1.25355,2.81384 -2.37375,5.84104 -3.36059,9.08162 -0.77347,2.12038 -1.46693,4.4808 -2.08038,7.08126 -1.08019,4.24075 -2.00036,8.56152 -2.76049,12.9623 l -1.00017,6.44115 c -0.55756,3.27754 -0.77033,6.14131 -1.0802,9.12162 -0.26671,3.53396 -0.34673,7.14794 -0.24004,10.84193 -1.20021,0.26672 -2.6138,0.7468 -4.24075,1.44026 -1.65879,0.63549 -3.53913,1.50231 -5.641009,2.60046 3.381009,22.0637 6.230779,12.05136 10.457359,16.15426 z"
         id="path19" /><path
         style="display:inline;opacity:1;fill:#aaaaaa;fill-opacity:1;stroke:none;stroke-width:0.0755906;stroke-linejoin:round;stroke-dasharray:none;stroke-opacity:1"
         d="m 187.0833,270.89822 -4.97088,8.19146 -0.54088,11.23282 33.86893,-0.14495 c 0.48532,-8.32594 0.97063,-14.73344 1.45595,-19.22253 0.32926,-5.05436 1.07346,-9.8824 2.23255,-14.48413 -0.58468,-0.69781 -0.8675,-1.35788 -0.84868,-1.98025 -0.0634,-1.11545 0.33276,-2.11498 1.18815,-2.99866 0.81095,-0.77325 1.81052,-1.24472 2.99867,-1.41447 0.98069,-0.0943 1.81052,0.0754 2.48946,0.50921 0.92736,0.65799 1.56862,1.33693 1.92367,2.03683 0.2263,1.33898 0.26405,2.26318 0.11316,2.77235 -0.45263,0.90523 -0.94298,1.50879 -1.47105,1.81052 -0.37494,3.33193 -1.34315,5.18583 -1.64078,8.71311 -0.92062,6.06809 -1.8746,24.88378 -1.47105,24.15906 h 12.7019 l 19.37818,-19.12357 c 3.7548,-2.78784 7.36396,-5.33294 11.54204,-8.82626 l 14.20123,-10.74994 20.6512,-16.01175 13.80518,-10.80651 c 2.88552,-2.01797 5.28066,-4.18682 7.18548,-6.50654 0.79211,-0.84867 1.45217,-1.84825 1.98025,-2.99867 -3.26762,7.12702 -2.10956,10.07473 -7.01575,15.04991 -3.2627,3.20611 -6.67627,5.88418 -10.24072,8.03416 -6.29908,4.0548 -11.91924,8.41135 -16.86043,13.06966 -2.97982,2.71578 -6.71399,5.58242 -11.20257,8.59995 -5.82759,3.39472 -10.59907,7.09118 -14.31439,11.08941 l -19.55452,19.55177 c 17.05752,-7.16006 59.7209,-26.7455 79.64101,-76.8659 1.17264,-2.13414 1.77683,-4.63002 2.3763,-7.12891 0.16272,-3.16139 -0.10134,-5.89599 -0.7921,-8.2039 -1.00181,-2.78828 -2.03879,-5.53084 -3.56445,-7.63811 -1.8353,-2.25264 -3.45721,-4.7987 -4.86576,-7.63811 -0.86619,-1.89566 -1.86576,-3.95136 -2.99867,-6.16707 -2.31541,-4.41313 -3.05424,-8.82627 -4.46971,-13.2394 -0.81503,-3.16687 -1.58561,-6.35042 -1.98025,-9.67494 -0.63823,-4.64005 -1.4123,-8.39713 -2.14999,-12.39072 -0.38231,-2.22165 -1.00469,-4.06985 -1.86709,-5.5447 -1.50095,-2.5657 -3.02858,-4.67794 -4.58287,-6.33681 -2.50819,-2.54875 -4.89412,-5.26722 -7.35522,-7.69469 -1.7612,-1.92124 -3.17564,-3.07562 -4.24339,-3.98334 l -2.92474,-2.24302 c -0.10859,2.48889 -0.3715,4.99244 -0.64011,6.84122 -0.42272,2.10522 -0.6802,3.23523 -1.04958,4.48696 -0.26619,0.86209 -0.52318,1.93311 -0.81445,2.71528 0.42453,0.68604 0.94358,1.85872 1.0626,3.40925 0.0518,0.67506 0.0595,1.40927 0.01,2.18278 -0.17987,1.81857 -0.13882,3.36269 -0.39605,6.33681 -0.27512,4.229 -0.88633,7.4497 -1.47104,10.74993 -0.53818,3.34815 -1.54065,6.29005 -2.48946,9.2789 -1.03971,3.86432 -2.58623,7.54191 -4.63945,11.03283 -3.0875,6.15383 -6.4447,11.40869 -9.67494,17.08674 l -5.20523,7.75127 c -4.03582,6.13572 -8.77191,11.80459 -13.2394,17.65253 -4.48856,5.78988 -9.12802,11.42887 -13.91834,16.917 -4.35654,5.33731 -8.86399,9.76918 -13.52229,13.29597 -5.8276,4.58285 -11.65519,9.46751 -17.48279,14.65387 l -8.03416,6.28022 c -2.06381,1.54158 -4.01898,3.17974 -6.3024,4.52611 z"
         id="path20" /></g><g
       id="layer13"
       style="display:inline"
       transform="translate(-68.736031,-10.523622)"><path
         style="opacity:1;fill:#333333;fill-opacity:1;stroke:#ffffff;stroke-width:0;stroke-linejoin:miter;stroke-dasharray:none;paint-order:normal"
         d="m 127.94273,158.10817 c -2.37991,6.12104 -4.17621,12.27052 -5.38888,18.44845 -0.91886,4.55564 -1.61633,10.02156 -2.09241,16.39776 -0.80577,8.6469 -0.7213,16.9192 0.25343,24.81691 0.75023,5.31707 1.36255,10.70601 3.70625,15.19275 2.6616,5.14627 6.10256,9.29282 10.32286,12.43967 l 12.9349,9.52872 5.16832,3.95368 9.14163,7.40132 10.0618,6.40114 10.06179,6.40111 4.97088,-8.19146 c 4.99646,-3.50501 9.77541,-7.10711 14.33684,-10.80629 l 17.48279,-14.65387 c 7.15833,-5.89527 13.40698,-12.3659 18.74595,-19.4119 5.69928,-6.76039 10.75027,-13.51186 16.05038,-20.26675 4.11734,-5.30855 7.54294,-10.62393 11.08893,-15.93812 3.26492,-5.58788 6.58492,-11.0272 9.67494,-17.08674 3.36639,-6.37787 5.74269,-13.14845 7.12891,-20.31173 0.92909,-5.57711 1.80577,-11.17447 1.86709,-17.08674 0.18202,-2.26899 -0.17551,-4.133 -1.0726,-5.59203 l -5.35726,14.8817 -5.46097,11.40202 -3.75971,3.20078 -1.52123,14.72241 -7.75736,19.85325 -8.24549,10.87222 -14.05013,14.70251 -15.47508,12.3023 -13.32928,6.26738 -14.7894,0.69985 -14.44894,-4.5268 -12.24218,-9.28165 -13.2813,-12.01605 -10.56295,-11.34811 -8.44724,-13.78775 -4.2059,-13.81555 z"
         id="path5" /><path
         style="opacity:1;fill:#333333;fill-opacity:1;stroke:#ffffff;stroke-width:0;stroke-linejoin:miter;stroke-dasharray:none;paint-order:normal"
         d="m 140.12669,263.33806 c 0.3519,-0.24467 0.75805,-0.39509 1.21847,-0.45127 0.73528,-0.003 1.38989,0.0486 1.96384,0.15467 0.75381,0.14061 1.4061,0.34243 1.95686,0.60547 0.51739,0.50161 0.82528,1.06552 0.92368,1.69173 0.10095,0.60657 0.10895,1.19104 0.024,1.75342 l -1.58071,-0.92802 c -1.54624,-0.91254 -3.04829,-1.85454 -4.50614,-2.826 z"
         id="path23" /><path
         style="opacity:1;fill:#333333;fill-opacity:1;stroke:#ffffff;stroke-width:0;stroke-linejoin:miter;stroke-dasharray:none;paint-order:normal"
         d="m 216.00064,281.41939 0.89578,-10.46437 c 0.28903,-4.79114 1.03321,-9.61918 2.23255,-14.48413 -1.23551,-1.7165 -1.12236,-3.37614 0.33947,-4.97891 0.87896,-0.80487 1.87852,-1.27636 2.99867,-1.41447 1.84824,-0.16973 3.31928,0.67895 4.41313,2.54604 0.60351,2.16884 0.15088,3.69647 -1.35789,4.58287 l -1.64078,8.71311 -1.21956,14.40596 z"
         id="path22" /></g><g
       id="layer12"
       style="display:inline"
       transform="translate(-68.736031,-10.523622)"><path
         id="rect1"
         style="display:none;fill:none;stroke:#ffffff;stroke-width:15"
         d="M 81.994537,29.676369 H 323.45459 c 0,0 0,77.926221 0,116.889331 0,38.96311 0,116.88934 0,116.88934 H 81.994537 c 0,0 0,-77.92623 0,-116.88934 0,-38.96311 0,-116.889331 0,-116.889331 z" /><circle
         style="display:inline;opacity:1;fill:none;stroke:#ffffff;stroke-width:17.944;stroke-linejoin:miter;stroke-dasharray:none;paint-order:normal"
         id="path2"
         cx="185.07556"
         cy="133.86644"
         r="111.46246"
         transform="matrix(1.1085434,0,0,1.1206531,-2.9214352,17.154321)" /></g><g
       id="layer10"
       style="display:none"
       transform="translate(-68.736031,-10.523622)"><path
         style="opacity:1;fill:#fefefe;fill-opacity:1;stroke:#ea8547;stroke-width:0.0755906;stroke-linejoin:round;stroke-dasharray:none;stroke-opacity:0.996078"
         d="m 167.62984,226.36029 4.56081,16.08286 4.80085,16.56295 3.28059,11.84211 c 0.9152,3.27522 1.52864,6.02238 1.84033,8.24147 1.59963,-2.78668 2.36777,-5.77134 4.96088,-8.32148 l 11.60206,-11.44204 8.72156,-9.04161 9.60171,-10.48187 c 3.36385,-3.65845 6.19733,-6.42786 9.0416,-9.20163 2.52687,-2.68284 5.29536,-5.23144 7.52134,-8.08144 1.91564,-2.17347 3.9421,-4.32231 5.54052,-6.56627 -2.19778,1.97109 -5.83444,5.66399 -8.42103,8.00652 -3.18826,2.65312 -6.58523,5.16711 -9.92176,7.72138 -3.51813,2.42107 -7.20287,4.1698 -12.1463,5.68815 -3.42925,0.74911 -6.69721,1.1828 -10.79235,1.31662 -3.01387,0 -5.80671,-0.17968 -8.71389,-0.7665 -3.72733,-0.9335 -7.48776,-2.0642 -10.73501,-3.79784 -1.79365,-1.01351 -3.74733,-2.26707 -5.86104,-3.76067 z"
         id="path18" /></g><g
       id="layer3"
       style="display:inline;stroke-width:1.00157;stroke-dasharray:none"
       transform="translate(-68.736031,-10.523622)"><path
         d="m 198.70409,10.523622 c -6.22365,0 -12.22098,0.528067 -17.992,1.584201 -4.82804,0.603505 -10.37274,2.03683 -16.63411,4.299975 -2.64034,0.942977 -5.35611,2.187706 -8.14732,3.734188 -4.82804,2.753493 -8.9017,5.959614 -12.22098,9.618365 -3.28156,3.055245 -6.714,7.996444 -10.29731,14.823596 -2.11227,4.375413 -3.50787,9.260033 -4.7526,14.427546 -0.50921,2.696914 -1.45219,7.204344 -1.92368,14.767019 -0.30175,5.733299 -0.41719,9.877821 -0.42635,12.673609 0.10115,4.022769 0.23775,7.015127 0.36977,10.297308 l 0.023,3.704431 c -2.11636,0.35732 -2.87496,1.65753 -2.27555,3.9008 -1.38644,5.80242 -1.13059,10.49144 -0.72498,15.34665 0.44226,3.81797 0.89961,7.94376 2.40043,11.52205 0.88017,2.00037 1.33356,3.2539 1.36024,3.76067 -0.13805,4.95288 0.28861,8.59733 0.16003,12.16216 -0.16003,3.86735 -0.0533,7.52134 0.32005,10.96195 l 0.36007,6.48116 c 0.54735,4.52032 0.56429,8.12717 2.92052,15.7628 2.35521,9.28783 6.53895,15.50514 10.88193,21.12376 4.58748,5.49432 9.38834,10.45519 14.40257,14.88265 l 9.44168,8.48151 c 4.30704,4.07459 8.38776,7.16845 12.24218,9.28165 3.41204,1.86946 7.05041,3.13538 10.91508,3.79784 3.66815,0.69125 7.47759,0.76935 11.20199,0.80014 3.00085,-0.10415 4.96803,-0.32711 7.12127,-0.77103 5.24891,-1.40599 9.85658,-3.79271 14.04936,-6.70746 5.54629,-3.52051 8.58016,-6.86466 12.40623,-10.24182 l 6.63716,-6.88123 c 3.55567,-2.99635 6.80957,-6.14358 9.76174,-9.44168 4.46473,-5.03856 6.94916,-8.54944 8.24549,-10.87222 2.31372,-3.84772 4.09935,-7.31823 5.35693,-10.41157 0.77316,-2.52653 1.52556,-4.57566 2.40043,-9.44168 0.86259,-4.00566 1.20113,-8.85059 1.24021,-14.0825 2.09374,-1.86702 3.44059,-3.14721 4.04073,-3.84069 1.1202,-1.06683 2.40043,-3.30727 3.84068,-6.72119 l 3.24058,-9.36167 3.44061,-9.36167 c 0.86682,-2.34708 1.56028,-5.14758 2.16039,-8.04143 0.36006,-1.907 0.52009,-3.86736 0.64011,-6.84122 0.0933,-3.41394 -0.0267,-6.24111 -0.36006,-8.48151 -0.37341,-2.72048 -1.17354,-5.28094 -2.40043,-7.681363 -0.96018,-1.44025 -2.13371,-2.72049 -3.52063,-3.840683 -1.28022,-1.120156 -1.69364,-1.040229 -3.68066,-1.520271 -2.49183,0.109171 -4.1455,0.322514 -5.641,0.680121 0.17337,-3.187234 0.24005,-6.374468 0.20004,-9.561702 -0.14379,-5.944652 -0.46756,-12.512332 -1.28023,-17.603133 -0.58677,-4.74751 -1.44026,-9.121625 -2.56046,-13.122336 -1.54695,-5.494308 -3.68065,-10.50854 -6.40114,-15.042677 -2.08038,-3.894025 -5.01421,-7.681369 -8.80156,-11.362023 -3.46729,-3.520619 -7.9214,-6.82789 -12.88229,-9.281652 -4.66752,-2.373754 -8.08142,-3.920699 -13.20235,-5.440968 -5.44096,-1.493586 -10.26851,-2.080384 -15.1227,-2.560456 z"
         id="path21"
         style="display:none;stroke-width:1.00157;stroke-dasharray:none" /><path
         style="display:inline;opacity:1;fill:#ffbc83;fill-opacity:0.996078;stroke:none;stroke-width:1.00157;stroke-linejoin:round;stroke-dasharray:none;stroke-opacity:1"
         d="m 198.70409,10.523622 c -6.22365,0 -12.22098,0.528067 -17.992,1.584201 -4.82804,0.603505 -10.37274,2.03683 -16.63411,4.299975 -2.64034,0.942977 -5.35611,2.187706 -8.14732,3.734188 -4.82804,2.753493 -8.9017,5.959614 -12.22098,9.618365 -3.28156,3.055245 -6.714,7.996444 -10.29731,14.823596 -2.11227,4.375413 -3.50787,9.260033 -4.7526,14.427546 -0.50921,2.696914 -1.45219,7.204344 -1.92368,14.767019 -0.30175,5.733299 -0.41719,9.877821 -0.42635,12.673609 0.10115,4.022769 0.23775,7.015127 0.36977,10.297308 l 0.023,3.704431 c -2.11636,0.35732 -2.87496,1.65753 -2.27555,3.9008 -1.38644,5.80242 -1.13059,10.49144 -0.72498,15.34665 0.44226,3.81797 0.89961,7.94376 2.40043,11.52205 0.88017,2.00037 1.33356,3.2539 1.36024,3.76067 -0.13805,4.95288 0.28861,8.59733 0.16003,12.16216 -0.16003,3.86735 -0.0533,7.52134 0.32005,10.96195 l 0.36007,6.48116 c 0.54735,4.52032 0.56429,8.12717 2.92052,15.7628 2.35521,9.28783 6.53895,15.50514 10.88193,21.12376 4.58748,5.49432 9.38834,10.45519 14.40257,14.88265 l 9.44168,8.48151 c 4.30704,4.07459 8.38776,7.16845 12.24218,9.28165 3.41204,1.86946 7.05041,3.13538 10.91508,3.79784 3.66815,0.69125 7.47759,0.76935 11.20199,0.80014 3.00085,-0.10415 4.96803,-0.32711 7.12127,-0.77103 5.24891,-1.40599 9.85658,-3.79271 14.04936,-6.70746 5.54629,-3.52051 8.58016,-6.86466 12.40623,-10.24182 l 6.63716,-6.88123 c 3.55567,-2.99635 6.80957,-6.14358 9.76174,-9.44168 4.46473,-5.03856 6.94916,-8.54944 8.24549,-10.87222 2.31372,-3.84772 4.09935,-7.31823 5.35693,-10.41157 0.77316,-2.52653 1.52556,-4.57566 2.40043,-9.44168 0.86259,-4.00566 1.20113,-8.85059 1.24021,-14.0825 2.09374,-1.86702 3.44059,-3.14721 4.04073,-3.84069 1.1202,-1.06683 2.40043,-3.30727 3.84068,-6.72119 l 3.24058,-9.36167 3.44061,-9.36167 c 0.86682,-2.34708 1.56028,-5.14758 2.16039,-8.04143 0.36006,-1.907 0.52009,-3.86736 0.64011,-6.84122 0.0933,-3.41394 -0.0267,-6.24111 -0.36006,-8.48151 -0.37341,-2.72048 -1.17354,-5.28094 -2.40043,-7.681363 -0.96018,-1.44025 -2.13371,-2.72049 -3.52063,-3.840683 -1.28022,-1.120156 -1.69364,-1.040229 -3.68066,-1.520271 -2.49183,0.109171 -4.1455,0.322514 -5.641,0.680121 0.17337,-3.187234 0.24005,-6.374468 0.20004,-9.561702 -0.14379,-5.944652 -0.46756,-12.512332 -1.28023,-17.603133 -0.58677,-4.74751 -1.44026,-9.121625 -2.56046,-13.122336 -1.54695,-5.494308 -3.68065,-10.50854 -6.40114,-15.042677 -2.08038,-3.894025 -5.01421,-7.681369 -8.80156,-11.362023 -3.46729,-3.520619 -7.9214,-6.82789 -12.88229,-9.281652 -4.66752,-2.373754 -8.08142,-3.920699 -13.20235,-5.440968 -5.44096,-1.493586 -10.26851,-2.080384 -15.1227,-2.560456 z"
         id="path3" /></g><g
       id="layer2"
       style="display:inline"
       transform="translate(-68.736031,-10.523622)"><path
         id="path1"
         style="display:inline;fill:#fecb9e;fill-opacity:1;stroke:none;stroke-width:0.377953;stroke-linejoin:round;stroke-dasharray:none"
         d="m 268.84766,98.097656 -1.91993,1.279297 c -0.47338,4.973477 -1.39932,9.589787 -2.08007,13.923827 -0.90683,5.70768 -1.81388,11.30843 -2.72071,16.80274 -0.69346,7.8414 -1.49356,15.14928 -2.40039,21.92382 -0.85348,6.3478 -2.00109,12.00278 -3.36133,17.92383 -1.31265,4.72532 -4.22455,9.55544 -8.09765,14.49414 -0.97033,1.15518 -2.63097,2.51615 -4.75391,4.07422 -1.27787,1.06072 -2.47434,1.88264 -4.07226,2.94336 -0.43812,-5.29898 -1.56951,-10.27864 -3.39453,-14.9375 -1.74897,-3.90936 -3.15442,-7.77693 -7.46876,-11.99414 -3.36725,-3.05414 -7.21553,-5.46828 -11.54296,-7.24219 -1.77548,-0.6881 -3.08413,-1.05754 -4.32618,-1.18554 -1.91223,0.90984 -3.89129,1.60775 -6.37695,2.13086 -1.27831,0.14531 -2.4766,0.30988 -3.91406,0.0137 -1.5799,2.48431 -4.12293,4.50289 -6.42969,5.37695 -2.08102,0.53344 -4.26811,0.53342 -6.5625,0 -1.69089,-0.37183 -3.27639,-1.27616 -4.7539,-2.71484 -0.34595,-0.48768 -0.79811,-1.24257 -1.35743,-2.26368 -1.46647,0.16232 -2.7735,0.0586 -3.91992,-0.3125 -0.88127,-0.13485 -1.76131,-0.48332 -2.64258,-1.04492 -3.33222,0.94676 -6.87776,2.26543 -10.63672,3.95899 -3.47553,2.27987 -6.4175,5.14815 -8.82617,8.60156 -1.83799,2.54011 -3.19641,5.2929 -4.07422,8.25977 -0.93004,2.9798 -1.6471,5.95964 -2.15039,8.93945 -2.73519,-2.23301 -5.79071,-5.21285 -9.16601,-8.93945 -2.52606,-3.70295 -4.57058,-7.19307 -5.81641,-11.10938 -1.10947,-3.23927 -2.167,-6.638 -3.00976,-10.27734 -0.75438,-3.58331 -1.50734,-7.16669 -2.26172,-10.75 -0.65845,-3.65837 -1.54005,-7.31782 -3.10743,-10.74805 -0.48641,9.15135 0.008,18.25338 0.16016,24.96484 0.6902,8.99382 1.6497,16.84603 4.16211,23.09571 2.50697,7.88216 6.56664,13.96295 11.33203,19.40429 5.81781,6.7235 13.29806,13.67904 17.33789,17.82227 5.42997,4.76982 10.21065,8.46454 15.03711,12.02734 4.88561,3.2061 11.09289,5.57261 16.9082,6.10938 6.56623,0.16858 13.09985,0.65562 17.97443,-1.69713 4.74502,-1.61009 9.01439,-3.68109 12.26581,-6.14467 4.66423,-3.59625 9.11604,-7.40473 13.35352,-11.42773 4.36247,-4.21806 7.87091,-8.40938 11.80664,-12.41407 3.30135,-3.71671 6.40313,-7.16176 8.96484,-10.60937 2.66714,-4.00071 4.90705,-8.429 6.7207,-13.2832 1.51951,-3.92146 2.39531,-8.06019 3.04102,-12.00196 0.55372,-3.68155 0.73199,-6.77733 1.04101,-11.84179 -0.08,-7.25879 0.29331,-14.07942 -0.0801,-20.96485 0.08,-6.1611 0.32018,-12.21438 0.16015,-18.16211 0.0534,-5.76102 0.63906,-11.1223 1.11914,-17.52344 z M 226.04102,180.5918 c 0.60105,0.46123 1.10707,0.94245 1.51953,1.4414 0.62126,0.677 1.40352,2.12125 2.0625,3.30274 0.61182,1.31134 1.19381,2.70721 1.77734,4.45703 0.42711,1.60924 1.04397,3.25439 0.7207,4.7207 -0.64012,1.57362 -1.81256,3.04211 -3.51953,4.40235 -1.60525,1.37654 -2.90469,2.70097 -6.40234,4.80078 -1.48066,0.9335 -3.18782,1.86728 -5.1211,2.80078 -1.55419,0.81119 -3.44654,1.58456 -5.67968,2.32031 -3.05638,0.97152 -4.49312,1.42635 -12.32227,1.59961 -3.3606,0.13336 -6.82837,-0.0538 -10.40234,-0.56055 -1.22942,-0.0655 -3.03541,-0.43934 -5.1211,-1.03906 -3.89403,-0.84235 -7.78761,-2.37567 -11.68164,-4.40234 -2.60275,-1.3877 -5.24368,-3.22657 -7.92187,-5.51953 -1.18383,-1.1263 -2.32421,-1.97361 -3.61133,-3.57227 -0.47721,-0.83522 -0.86506,-2.12044 -0.78906,-4.26953 0.0385,-1.90472 0.49105,-3.77228 1.35937,-5.60156 0.69204,-1.50465 1.42597,-2.97118 2.96094,-4.40039 0.29731,0.55441 2.85804,1.67533 7.68164,3.36132 2.86299,0.97311 5.90557,1.69171 9.07031,2.4668 2.49417,0.61534 5.18602,0.81459 8.13282,1.05273 2.58255,0.14601 5.0898,0.17991 7.52148,0.0996 2.9449,-0.0248 5.73808,-0.23948 8.7207,-0.5 2.62027,-0.27586 5.12753,-0.70167 7.52149,-1.27929 2.14018,-0.52696 4.08335,-1.10989 6.13867,-1.75 2.10598,-0.77672 3.64212,-1.39106 5.38281,-2.33008 0.76108,-0.43913 1.42947,-0.97383 2.00196,-1.60156 z" /></g><g
       id="layer5"
       style="display:inline;fill:#ff0000;fill-opacity:1"
       transform="translate(-68.736031,-10.523622)"><path
         style="display:inline;opacity:1;fill:#581007;fill-opacity:1;stroke:none;stroke-width:0.0755906;stroke-linejoin:round;stroke-dasharray:none;stroke-opacity:1"
         d="m 161.33392,108.09344 c -1.28245,-0.0754 -2.32916,-0.11316 -3.87564,0.0566 -2.03769,0.28717 -3.32371,0.52194 -5.20523,1.21644 -1.86794,0.63728 -3.10064,1.2017 -4.66774,2.14998 l -2.48945,1.81053 -1.66908,1.78222 2.71578,-1.10329 c 1.78223,-0.70723 2.60261,-0.97126 4.24339,-1.49933 l 2.77235,-0.65065 c 1.92368,-0.27346 1.71623,-0.29233 2.63092,-0.25461 -0.33948,0.83925 -0.68838,1.57478 -0.65067,2.71578 -0.0305,1.63097 0.0732,1.65926 0.33948,3.02695 0.35833,1.03728 0.94298,1.84824 1.75394,2.43288 0.66008,0.62237 1.47104,1.05614 2.43288,1.30131 1.17872,0.22631 2.35744,0.18859 3.53616,-0.11316 1.20701,-0.36776 2.09341,-0.93355 2.97038,-1.75394 0.62237,-0.78266 1.04671,-1.5559 1.13157,-2.43287 0.14145,-0.50921 0.13202,-1.43333 -0.0283,-2.77236 -0.009,-0.62236 -0.16973,-1.24473 -0.48092,-1.86709 l 1.92367,0.67894 2.23486,0.90527 c 0.84868,0.35833 1.50876,0.75438 1.98025,1.18814 -0.10373,-0.6035 -0.54692,-1.32016 -1.3296,-2.14998 -0.71666,-0.78268 -1.52762,-1.65022 -2.77235,-2.43289 -1.19758,-0.59407 -1.9331,-0.95241 -3.14011,-1.41446 -1.93311,-0.64122 -2.71577,-0.75438 -4.35655,-0.82039 z"
         id="path6" /><path
         style="display:inline;opacity:1;fill:#5a0f07;fill-opacity:1;stroke:#ffffff;stroke-width:0.0755906;stroke-linejoin:round;stroke-dasharray:none;stroke-opacity:1"
         d="m 227.28046,107.8592 c -1.07238,-0.0198 -2.12591,0.0735 -3.16057,0.28005 -0.87558,0.14898 -1.67572,0.33568 -2.40042,0.5601 -0.79523,0.22489 -1.63212,0.53828 -2.70048,1.22022 -0.80243,0.56506 -1.26252,0.83178 -2.62047,2.06036 -0.42674,0.3734 -0.86015,1.04019 -1.18021,1.6803 -0.20671,0.46675 -0.26005,0.85349 -0.22004,1.44026 l 1.08019,-0.72013 c 0.14669,-0.0934 0.40674,-0.31339 1.30023,-0.78014 0.30672,-0.1867 1.05352,-0.52676 1.84033,-0.82015 0.20004,-0.10668 0.70013,-0.2267 1.38025,-0.44007 l 1.00017,-0.16003 c 0.0446,0.7155 0.0199,0.45176 -0.12002,1.08019 -0.13122,0.51978 -0.29855,1.21811 -0.32005,1.84033 -0.0607,0.21587 -0.10392,1.81946 0.08,2.04036 0.21337,0.81348 0.50676,1.46693 0.88016,1.96035 0.3734,0.53343 0.80014,0.9335 1.28022,1.20021 0.48009,0.28005 0.96017,0.50676 1.44026,0.68012 0.34673,0.20004 1.06686,0.34673 2.16039,0.44008 0.94683,0.0267 1.84032,-0.16003 2.68047,-0.5601 0.86682,-0.42674 1.54695,-0.88016 2.04037,-1.36024 0.35949,-0.33183 0.65446,-0.67084 0.88493,-1.017 0.21411,-0.3216 0.61259,-1.00945 0.71535,-1.34342 0.22863,-0.83359 0.34726,-1.40933 0.34006,-2.22039 l -0.12002,-1.30024 -0.24005,-1.1002 -0.18002,-0.66011 c 0.44008,-0.08 1.38692,0.16669 1.72031,0.30004 l 1.52027,0.42008 2.12038,0.74013 1.48026,0.50009 c 0.77347,0.22671 1.41358,0.42674 1.92034,0.60011 0.8935,0.32672 1.62696,0.65345 2.2004,0.98017 -0.16003,-0.42007 -0.5601,-0.94683 -1.20022,-1.58028 -0.7868,-0.76014 -1.36024,-1.28023 -1.7203,-1.56028 -0.58677,-0.53343 -1.3069,-0.98684 -2.16039,-1.36024 -0.7468,-0.44008 -1.42025,-0.72679 -2.06037,-1.04018 l -2.10037,-0.80015 c -0.96017,-0.32006 -2.14705,-0.70013 -3.00053,-0.86015 l -2.06037,-0.30006 z"
         id="path7" /></g><g
       id="layer6"
       style="display:inline"
       transform="translate(-68.736031,-10.523622)"><path
         style="display:inline;opacity:1;fill:#ea8547;fill-opacity:0.996078;stroke:#e98646;stroke-width:0.0755906;stroke-linejoin:round;stroke-dasharray:none;stroke-opacity:1"
         d="m 268.74841,112.98749 c -0.50306,2.5182 -0.39763,4.56314 -0.45263,6.73286 l -0.2469,7.18548 c -0.012,2.30354 -0.024,4.34037 -0.036,6.11049 -0.0182,1.48789 -0.16378,3.35798 -0.28289,5.14865 1.17339,-0.005 2.38188,-0.64022 3.50787,-1.35788 1.63699,-1.26549 2.90058,-2.71767 3.79077,-4.35656 1.32743,-2.00614 2.30812,-4.43902 2.94209,-7.29864 0.71547,-2.01831 1.43677,-5.27211 1.64078,-8.2039 0.0605,-2.10441 0.19484,-4.0612 0.0566,-6.56312 0.0175,-2.13217 -0.033,-3.34359 -0.11316,-4.52628 -0.0339,-0.70028 -0.29449,-1.70731 -0.96184,-1.64078 -0.94621,-0.11717 -1.86575,0.0657 -3.05867,0.68864 -1.55017,0.71776 -2.50161,1.77792 -3.56103,2.70607 -1.87514,1.92501 -2.95014,3.71667 -3.225,5.37497 z"
         id="path8" /></g><g
       id="layer7"
       style="display:inline"
       transform="translate(-68.736031,-10.523622)"><path
         style="opacity:1;fill:#9a5033;fill-opacity:1;stroke:none;stroke-width:0.0755906;stroke-linejoin:round;stroke-dasharray:none;stroke-opacity:1"
         d="m 137.86454,98.417518 c 2.9575,-0.563341 6.26476,-1.016755 9.92177,-1.360242 5.70385,-0.54535 10.66473,-0.705379 14.88264,-0.480086 3.65399,0.08001 6.94724,0.384489 9.85443,0.677875 2.41803,0.39923 4.11322,0.674215 5.98839,1.082439 0.42675,-0.786807 0.64012,-1.89367 0.64012,-3.320591 0.24005,-1.226885 -0.1867,-2.92052 -0.80014,-4.360777 -0.58677,-1.120199 -1.60029,-1.973684 -3.04055,-2.560455 -1.09353,-0.3734 -3.30725,-0.533429 -6.64118,-0.480086 -2.85705,0.04516 -5.92426,0.205189 -9.20164,0.480085 l -8.36149,0.84015 c -2.18705,0.02667 -4.84086,0.84015 -6.92123,2.040363 -1.64152,1.028073 -2.70092,1.847434 -3.60064,2.880513 -1.60028,1.626956 -2.50711,3.147227 -2.72048,4.560812 z"
         id="path9" /><path
         style="opacity:1;fill:#9a5033;fill-opacity:1;stroke:none;stroke-width:0.0755906;stroke-linejoin:round;stroke-dasharray:none;stroke-opacity:1"
         d="m 210.75751,97.13729 c 2.01369,-0.360064 4.26743,-0.5601 6.24112,-0.800143 3.46728,-0.400071 6.24111,-0.586771 8.32148,-0.560099 l 10.08652,0.07706 c 3.97404,0.213371 6.10387,0.430573 7.83751,0.643944 3.12739,0.49545 6.43014,0.951236 8.64063,1.119141 -0.0267,-0.826812 -1.22683,-2.026838 -2.64041,-3.600449 -1.04018,-1.173543 -2.34708,-2.187056 -3.92069,-3.040542 -2.08037,-1.226885 -4.58748,-2.053698 -7.52134,-2.320412 -2.96053,-0.426743 -6.08108,-0.666786 -9.36167,-0.880157 -2.00036,-0.213371 -4.69417,-0.480085 -8.72155,-0.480085 -2.53379,-0.240043 -5.01423,0.266714 -6.80121,1.200213 -1.38691,0.826814 -2.2404,1.866999 -2.56046,3.120555 -0.34673,0.853486 -0.42674,1.760314 -0.24004,2.720485 0.16003,1.733642 0.3734,2.667137 0.64011,2.800494 z"
         id="path10" /></g><g
       id="layer4"
       style="display:inline"
       transform="translate(-68.736031,-10.523622)"><path
         id="path4"
         style="display:inline;opacity:1;fill:#2a1f1d;fill-opacity:1;stroke:none;stroke-width:0.245669;stroke-linejoin:round;stroke-dasharray:none;stroke-opacity:1"
         d="m 270.75391,90.689453 c -0.51493,0.02217 -1.03408,0.127983 -1.53711,0.328125 l -4.31836,1.628906 -7.89258,3.050782 c -1.64924,0.702657 -3.06248,1.660744 -5.12109,1.919922 -2.90901,-0.116933 -5.76627,-0.690419 -8.64063,-1.119141 -4.88344,-0.746206 -6.77584,-0.548438 -9.8418,-0.720703 l -12.48242,-0.08008 c -5.28097,0.453353 -10.29543,1.387258 -15.04297,2.800781 -4.61454,1.840515 -7.41511,2.773925 -8.40234,2.800785 -1.43857,0.27545 -3.10294,0.39935 -4.99414,0.37305 -0.9062,0.0886 -2.27144,-0.19566 -4.52539,-0.56641 -1.20701,-0.22631 -3.32037,-0.82985 -6.33789,-1.81055 -1.69736,-0.697803 -3.92229,-1.244575 -6.67578,-1.640625 -3.1684,-0.546927 -4.71579,-0.753297 -6.16797,-0.791016 -1.32017,-0.132017 -3.01725,-0.264467 -5.0918,-0.396484 -3.0741,-0.132016 -6.07286,-0.113096 -8.99609,0.05664 -3.05524,0.03772 -6.03509,0.226934 -8.93946,0.566406 -3.56445,0.43377 -6.82616,0.942698 -9.78711,1.527344 l -4.4707,0.791015 -2.82812,0.509766 -1.95704,0.535154 c -1.26654,0.44533 -2.12821,0.8446 -2.41406,1.47852 -0.45292,0.6471 -0.19771,1.88256 0.13867,2.42383 0.28879,0.43059 1.89783,1.37814 2.875,1.78515 1.71779,0.72693 2.3283,2.01409 2.23243,3.70118 0.18631,3.08499 0.49256,5.53042 0.8789,7.61523 0.66996,3.46852 1.33981,6.03069 2.00977,7.68555 0.88016,3.01387 2.46753,5.61379 4.20117,7.88086 2.49378,2.46711 4.98669,4.08165 7.48047,4.84179 3.33328,0.96426 6.86031,1.62098 10.24219,1.71875 3.3606,0.14669 6.34713,0.1343 8.96093,-0.0391 4.96088,-0.40007 8.89448,-1.72084 11.68164,-3.12109 3.60065,-2.10704 5.61536,-4.5331 7.40235,-7.24024 1.06685,-1.70697 2.06657,-4.08175 3.08008,-7.40234 0.5601,-2.10704 1.01459,-4.26674 1.36132,-6.48047 0.50676,-2.7205 0.90583,-4.16026 1.19922,-4.32031 0.77347,-1.44026 1.70725,-2.24036 2.80078,-2.40039 1.20021,-0.34672 2.50634,-0.37347 3.91993,-0.0801 1.92033,0.64012 3.09475,1.81255 3.52148,3.51953 0.48009,2.81383 1.01284,5.20177 1.59961,7.16211 0.69346,2.73382 1.54704,5.14653 2.56055,7.24024 1.44026,2.56045 2.88005,4.58843 4.32031,6.08203 1.73365,1.86699 4.21416,3.36026 7.44141,4.48047 2.82717,0.57543 5.65525,1.42678 8.48242,1.51953 l 6.08008,0.0801 6.94921,-0.2539 c 3.81245,-0.56925 6.36026,-1.36447 8.55079,-2.04688 2.3463,-1.21851 4.18396,-2.85206 5.625,-4.90039 1.52027,-2.21373 2.6125,-4.42689 3.27929,-6.64062 0.72013,-2.21373 1.31208,-4.56314 1.60547,-6.99024 0.42196,-3.6544 0.40302,-4.74331 0.4668,-6.32031 l 0.01,-5.73242 c 0.0589,-1.29954 0.64477,-2.26026 1.75977,-2.88086 l 4.16016,-1.67969 5.20117,-2.320314 c 2.02312,-1.019557 3.67748,-1.99535 4.24219,-2.001953 1.21469,0.161766 2.01551,0.135346 2.40039,-0.08008 1.09256,-0.174788 1.73261,-1.025919 1.91992,-2.558594 0.0449,-1.432054 -0.54372,-2.419022 -1.76172,-2.960937 -0.71431,-0.36972 -1.55586,-0.564298 -2.41406,-0.527344 z m -39.27344,10.529297 c 2.24715,0.0172 4.00488,0.0252 6.03515,0.13672 3.01525,0.30901 4.26748,0.51304 6.55665,0.92578 3.00047,0.88741 4.02921,2.20021 5.01171,3.73828 0.41759,0.80171 0.68495,2.13972 0.80079,4.75195 0.0897,1.26081 0.0663,3.23017 -0.0703,5.16993 -0.19826,3.29656 -0.65647,5.66554 -1.14843,7.41797 -0.44505,1.94432 -1.33427,3.56811 -2.38282,4.98437 -1.58545,1.92603 -3.58473,3.28562 -6,4.08008 -1.86746,0.80851 -5.28176,1.31453 -10.24218,1.51953 -3.3834,-0.0609 -6.75702,-0.0348 -10.45899,-0.41797 -3.76016,-0.71551 -6.99191,-2.12038 -9.38476,-4.86328 -1.73286,-1.97636 -3.01225,-4.21627 -3.83985,-6.7207 -0.99521,-2.12345 -1.69033,-4.73765 -2.08203,-7.8418 -0.32385,-2.40232 -0.27037,-4.6155 0.16016,-6.64063 0.75216,-1.90583 2.0335,-3.13174 3.84179,-3.67968 1.93754,-0.71098 4.81714,-1.27242 8.64063,-1.68164 3.12217,-0.42568 6.20718,-0.66257 9.25391,-0.82422 1.58853,-0.0954 3.35763,-0.0376 5.30859,-0.0547 z m -73.00391,0.96289 8.14649,0.0566 c 3.0741,0.13202 5.69639,0.41389 7.86523,0.84766 1.49933,0.2546 2.69792,0.56583 3.59375,0.93359 0.89583,0.36776 1.48893,0.79252 1.78125,1.27344 1.03727,0.62236 1.69758,1.54561 1.98047,2.77148 0.22632,1.4899 0.30196,2.82943 0.22656,4.01758 -0.0754,1.96139 -0.37818,4.07474 -0.90625,6.33789 -0.56579,2.09341 -1.35659,4.26158 -2.375,6.50586 -1.18815,2.71577 -2.75473,4.82718 -4.69726,6.33594 -1.97782,1.36143 -3.93786,2.30556 -5.88282,2.83008 -3.30042,0.81096 -6.82702,1.16852 -10.58007,1.07422 -2.97981,-0.0566 -5.95965,-0.33845 -8.93946,-0.84766 -1.90295,-0.36399 -3.98283,-1.16451 -6.33789,-2.43359 -1.6785,-1.22587 -3.1296,-3.13109 -4.35547,-5.71485 -0.90526,-1.98025 -1.43505,-3.80978 -1.58593,-5.48828 -0.45263,-1.11271 -0.75342,-3.65736 -0.9043,-7.63672 -0.0943,-2.62148 0.11384,-4.56453 0.62305,-5.82812 0.81096,-1.26359 1.62068,-2.07527 2.43164,-2.4336 0.71418,-0.72748 2.3063,-1.25287 4.52734,-1.52734 2.30016,-0.45031 4.8448,-0.7511 7.63672,-0.9043 z" /></g><g
       id="layer8"
       style="display:inline"
       transform="translate(-67.994187,-10.523622)"><path
         style="opacity:1;fill:#ec8644;fill-opacity:1;stroke:none;stroke-width:0.0755906;stroke-linejoin:round;stroke-dasharray:none;stroke-opacity:1"
         d="m 160.74861,64.491479 7.44133,0.5601 c 3.75799,0.337576 7.25194,0.524276 10.48186,0.5601 4.20894,0.352187 7.77169,0.462181 11.57863,0.546371 h 10.00178 l 10.69362,-0.244896 c 2.37538,-0.06735 5.08079,-0.162987 7.38073,-0.45665 2.21992,-0.213371 4.43984,-0.426743 6.65976,-0.640114 l 4.65456,-0.324911 c -0.46413,-0.557734 -1.98011,-1.033343 -4.4808,-1.440256 -1.62585,-0.379872 -3.89292,-0.646586 -6.80121,-0.800143 l -9.46512,0.0986 -9.57827,0.38149 c -3.80486,0.05981 -7.45884,0.0065 -10.96195,-0.160029 l -8.9616,-0.240042 -9.12162,0.160028 c -3.20057,0.213371 -6.37447,0.880157 -9.5217,2.000356 z"
         id="path11" /><path
         style="opacity:1;fill:#ec8644;fill-opacity:1;stroke:none;stroke-width:0.0755906;stroke-linejoin:round;stroke-dasharray:none;stroke-opacity:1"
         d="m 160.11747,78.983744 c 2.95944,-0.143058 5.73027,-0.172958 8.31251,-0.0897 3.82996,-0.03314 6.60379,0.04687 8.32148,0.240043 3.25391,0.3734 6.18777,0.560099 8.80157,0.560099 3.33392,0.05334 6.08108,0.1867 8.24146,0.400071 3.734,-0.02667 6.93457,-0.160028 9.60171,-0.400071 l 7.2813,-0.560099 c 3.84824,-0.181597 7.01547,-0.254944 9.50169,-0.22004 l 8.66154,-0.02 c -0.64011,-0.5601 -1.96035,-1.120199 -4.20075,-1.52027 -2.54337,-0.569693 -4.30484,-0.79755 -6.2011,-1.040186 -2.09365,-0.09361 -4.3349,-0.16494 -9.20164,0.160029 -3.06323,0.344659 -7.17866,0.531486 -11.282,0.720128 -3.38973,0.02577 -6.81034,-0.220942 -10.30184,-0.460082 -4.34947,-0.430406 -7.88757,-0.36863 -11.242,-0.380068 -2.6338,-0.01333 -5.45431,0.133357 -8.46151,0.440079 -2.51044,0.348137 -5.26979,1.352227 -7.83242,2.170071 z"
         id="path12" /><path
         style="opacity:1;fill:#ec8644;fill-opacity:1;stroke:none;stroke-width:0.0755906;stroke-linejoin:round;stroke-dasharray:none;stroke-opacity:1"
         d="m 183.11259,89.135866 c 0.38082,1.2766 0.55419,2.383463 0.5201,3.320591 -0.0298,1.674727 -0.14272,2.808478 -0.2449,4.01243 -0.13295,1.874808 -0.12897,2.425925 -0.15518,3.268866 l 2.32042,0.760137 c 0.28652,-0.737093 0.45988,-1.643921 0.52009,-2.720486 0.007,-0.919955 0.055,-1.617927 -0.08,-3.320591 -0.0204,-0.917021 -0.35093,-1.911325 -0.78115,-3.146418 -0.18804,-0.670021 -0.60711,-1.297608 -1.05918,-1.854472 -0.12042,-0.257562 -0.46715,-0.364248 -1.0402,-0.320057 z"
         id="path13" /><path
         style="opacity:1;fill:#ec8644;fill-opacity:1;stroke:none;stroke-width:0.0755906;stroke-linejoin:round;stroke-dasharray:none;stroke-opacity:1"
         d="m 165.54947,153.86739 c -1.7005,0.75216 -3.51416,2.03239 -5.44097,3.84068 -1.60218,1.35187 -3.15722,2.94892 -4.38221,4.9043 -1.23982,1.7226 -2.11189,3.53949 -2.89909,5.33752 -0.36882,0.94912 -0.62449,2.08684 -0.76699,3.41316 1.17354,-1.18459 2.36594,-2.42576 3.63377,-3.75179 l 3.7744,-4.54223 4.16075,-4.96089 c 1.35678,-1.86621 1.99689,-3.2798 1.92034,-4.24075 z"
         id="path14" /><path
         style="opacity:1;fill:#ec8644;fill-opacity:1;stroke:none;stroke-width:0.0755906;stroke-linejoin:round;stroke-dasharray:none;stroke-opacity:1"
         d="m 182.19243,193.15438 c 1.04332,1.49521 2.37689,2.74877 4.00071,3.76067 2.54862,1.50118 4.68234,2.24798 6.40114,2.2404 2.89659,0.0241 5.87009,0.1636 8.48151,-0.24004 2.76199,-0.78262 5.10908,-1.71612 7.04125,-2.8005 1.69084,-1.05609 2.85361,-2.03674 3.48832,-2.94195 -1.92788,0.54933 -4.15751,1.02323 -6.68889,1.42168 -3.15291,0.4774 -5.74004,0.69077 -7.76138,0.64011 -2.2183,0.0175 -4.51204,-0.11584 -6.88122,-0.40007 -1.38959,-0.11584 -3.04322,-0.38255 -4.96088,-0.80014 -1.07791,-0.21795 -2.11809,-0.51134 -3.12056,-0.88016 z"
         id="path15" /><path
         style="opacity:1;fill:#eb8543;fill-opacity:1;stroke:none;stroke-width:0.0755906;stroke-linejoin:round;stroke-dasharray:none;stroke-opacity:1"
         d="m 182.40945,136.18472 c -1.67203,0.4408 -3.23737,1.30834 -4.69603,2.60262 -1.32017,1.1165 -2.64033,2.60641 -3.9605,4.46971 -0.98014,1.45865 -1.64022,3.02399 -1.98025,4.69602 -0.35833,1.16929 -0.26404,2.71578 0.28289,4.63945 0.45263,1.26359 1.35789,2.52718 2.71578,3.79077 1.5842,1.16929 3.1684,1.88595 4.7526,2.14998 1.05803,0.24652 2.30276,0.35968 3.73419,0.33948 0.9403,1.85036 2.14731,3.11394 3.62103,3.79076 1.81132,1.19975 3.74477,1.30039 5.65786,1.5842 1.34967,0.0641 3.1088,-0.41171 5.20523,-1.41446 1.29618,-0.63207 2.35232,-1.42417 3.16841,-2.3763 1.06607,-1.62349 1.5187,-2.34015 1.35788,-2.14999 2.09511,0.0395 4.10027,-0.1217 5.65786,-0.50921 2.10335,-0.52026 3.59325,-1.06718 4.46971,-1.64078 1.37162,-0.83952 2.50319,-1.83908 3.39472,-2.99866 0.59648,-1.36515 0.76622,-2.38356 0.50921,-3.05525 1.14073,0.99956 2.04141,2.13914 3.08211,2.99867 1.8132,1.55429 3.21965,3.08192 4.49942,4.58287 2.55988,2.28823 4.79971,4.73649 6.71947,7.34478 1.62696,1.82699 2.9872,3.17389 4.08073,4.04071 1.02322,0.90454 1.89557,1.73365 2.61704,2.48731 0.0705,-0.0428 0.69407,0.77051 1.98378,2.21353 0.17029,-0.65976 -0.14977,-1.75328 -0.96017,-3.28058 -0.66137,-1.60546 -1.40668,-2.66533 -2.14038,-3.80068 l -2.06037,-2.98053 -2.6049,-3.0074 c -1.05785,-1.25059 -2.91461,-3.1063 -4.59638,-4.834 l -4.04072,-3.76067 -4.60082,-4.12073 -3.64065,-2.96053 c -1.33357,-1.1202 -2.37375,-1.89367 -3.12055,-2.32041 -0.82681,-0.57344 -1.76031,-1.04019 -2.8005,-1.40025 -0.28858,-0.15256 -0.70732,-0.196 -1.00018,-0.24004 -0.0533,0.32006 0.0267,0.5601 0.24005,0.72013 0.70679,0.54676 1.28022,1.20021 1.7203,1.96035 0.70679,0.92016 1.22689,1.76031 1.56028,2.52044 0.69346,1.24022 0.90683,2.53379 0.64011,3.8807 -0.40007,1.29356 -0.96017,2.16038 -1.6803,2.60046 -1.00941,0.6042 -2.01602,1.07786 -3.08054,1.36024 -1.05013,0.35477 -2.14366,0.59481 -3.28059,0.72013 -1.36024,0.21337 -2.69381,0.24003 -4.00071,0.08 -0.3531,1.22263 -0.88652,2.12946 -1.60028,2.72049 -0.76964,0.84253 -1.82317,1.52265 -3.16057,2.04036 -1.2848,0.40291 -2.64504,0.52293 -4.08072,0.36006 -1.40862,-0.30159 -2.51548,-0.84835 -3.32059,-1.64029 -0.9032,-1.01485 -1.63667,-2.16172 -2.2004,-3.44061 -0.97027,0.12973 -1.99711,0.0897 -3.08054,-0.12002 -0.9335,-0.18804 -1.867,-0.5081 -2.8005,-0.96017 -1.01312,-0.67041 -1.79993,-1.51056 -2.36042,-2.52045 -0.56423,-0.92282 -0.84339,-3.13185 -0.5601,-3.76067 -0.0518,-0.20373 0.97935,-1.67755 1.52027,-3.60064 0.42674,-0.97351 0.96017,-1.94701 1.60028,-2.92052 0.80781,-1.45589 1.4702,-2.40884 1.64029,-2.48044 0.64578,-0.85332 0.9715,-1.6533 0.97716,-2.39994 z"
         id="path16" /></g><g
       id="layer9"
       style="display:inline"
       transform="translate(-68.736031,-10.523622)"><path
         style="opacity:1;fill:#d35f2b;fill-opacity:1;stroke:#ffffff;stroke-width:0.0755906;stroke-linejoin:round;stroke-dasharray:none;stroke-opacity:1"
         d="m 193.99453,182.35246 c -3.38727,0.0267 -6.42781,-0.22671 -9.72173,-0.64011 -2.30161,-0.33143 -5.33112,-1.00098 -8.80157,-2.08038 -2.2404,-0.90683 -4.36078,-1.29356 -7.20128,-2.24039 -1.84033,-0.62678 -2.72048,-0.90683 -3.84068,0 -0.88016,0.7468 -1.1202,1.65362 -0.72013,2.72048 0.67554,1.13343 1.72554,1.89426 3.04054,2.56045 2.93386,1.33358 5.92106,2.25374 8.9616,2.84052 4.12073,0.85348 8.05477,1.61361 11.92212,1.96034 4.00071,0.29338 7.73471,0.3734 11.20199,0.24004 4.24076,-0.10669 9.08162,-0.57344 12.3622,-1.32024 2.66329,-0.68853 5.30902,-1.67917 7.72138,-2.2804 2.74715,-1.01351 4.85419,-2.02703 6.32112,-3.04054 0.80014,-0.7468 1.22689,-1.60029 1.28023,-2.56046 -0.1867,-1.3069 -0.9335,-2.05369 -2.2404,-2.24039 -1.28023,-0.0533 -2.45377,0.21337 -3.52063,0.80014 -3.1739,1.33357 -6.29445,2.34708 -9.36166,3.04054 -2.8005,0.80014 -5.601,1.33357 -8.4015,1.60028 -2.2404,0.40007 -5.2676,0.5601 -9.0016,0.64012 z"
         id="path17" /></g></g></svg>
