<?xml version="1.0" encoding="UTF-8" standalone="no"?>
<!-- Created with Inkscape (http://www.inkscape.org/) -->

<svg
   width="1920"
   height="1080"
   viewBox="0 0 1920 1080"
   version="1.1"
   id="svg1"
   xml:space="preserve"
   inkscape:version="1.4.2 (ebf0e940d0, 2025-05-08)"
   sodipodi:docname="zeitmaschine-colored.svg"
   inkscape:export-filename="zeitmaschine-colored-plain.svg"
   inkscape:export-xdpi="96"
   inkscape:export-ydpi="96"
   xmlns:inkscape="http://www.inkscape.org/namespaces/inkscape"
   xmlns:sodipodi="http://sodipodi.sourceforge.net/DTD/sodipodi-0.dtd"
   xmlns="http://www.w3.org/2000/svg"
   xmlns:svg="http://www.w3.org/2000/svg"><sodipodi:namedview
     id="namedview1"
     pagecolor="#505050"
     bordercolor="#eeeeee"
     borderopacity="1"
     inkscape:showpageshadow="0"
     inkscape:pageopacity="0"
     inkscape:pagecheckerboard="0"
     inkscape:deskcolor="#505050"
     inkscape:document-units="mm"
     inkscape:zoom="0.27616443"
     inkscape:cx="807.48996"
     inkscape:cy="919.74192"
     inkscape:window-width="1600"
     inkscape:window-height="831"
     inkscape:window-x="0"
     inkscape:window-y="0"
     inkscape:window-maximized="1"
     inkscape:current-layer="layer6"><inkscape:page
       x="0"
       y="0"
       width="1920"
       height="1080"
       id="page2"
       margin="0"
       bleed="0" /></sodipodi:namedview><defs
     id="defs1" /><g
     inkscape:groupmode="layer"
     id="layer21"
     inkscape:label="Hintergrund"><rect
       style="fill:#504a46;fill-opacity:1;stroke-width:16;stroke-linecap:round;stroke-linejoin:round"
       id="rect1"
       width="1920"
       height="1080"
       x="0"
       y="0" /><ellipse
       style="display:inline;fill:#dddddd;fill-opacity:0.666667;stroke-width:15.592;stroke-linecap:round;stroke-linejoin:round"
       id="path2"
       cx="807.03394"
       cy="781.19171"
       rx="683.23584"
       ry="481.37103"
       transform="matrix(0.96846644,-0.24914405,0.26164301,0.96516472,0,0)" /><path
       style="display:none;fill:#aaaaaa;fill-opacity:0.666667;stroke-width:16;stroke-linecap:round;stroke-linejoin:round"
       d="m 477.97613,202.77775 c 59.74701,-62.76454 74.83464,-162.946406 219.07239,-164.756922 256.46277,5.431547 224.47699,110.475052 305.97718,65.178562 167.7744,-74.231139 324.6858,48.88392 423.6606,47.07341 82.0767,-1.20701 198.5532,119.49403 150.2728,269.76683 -62.7646,118.89052 36.2103,133.37465 61.5575,197.3462 31.9858,94.14681 -36.8138,162.94641 -43.4523,300.54559 -15.0876,114.99518 -91.1293,155.13738 -159.3254,116.80568 -127.9431,-43.76327 -178.0401,-66.46722 -267.9563,0.8778 -169.58497,44.3851 -330.11736,8.4857 -499.70233,-6.3093 -182.86208,3.9136 -305.97714,-0.6218 -356.67158,-55.24819 -76.64516,-76.64516 59.74702,-187.08661 50.69444,-316.84023 -15.08763,-249.24766 15.08763,-354.86107 115.873,-454.43943 z"
       id="path1"
       sodipodi:nodetypes="ccccccccccccc" /></g><g
     inkscape:groupmode="layer"
     id="layer2"
     inkscape:label="Professor"><g
       inkscape:groupmode="layer"
       id="layer3"
       inkscape:label="Haare"
       style="display:inline"><path
         style="display:inline;fill:#dddddd;fill-opacity:1;stroke:none;stroke-width:16;stroke-linecap:round;stroke-linejoin:round;stroke-dasharray:none;stroke-opacity:1"
         d="m 642.71989,426.3035 2.56045,-20.48364 -5.12091,-15.04268 -16.3229,-14.24254 -3.20057,23.52419 -8.00143,-14.0825 -14.72262,-10.24182 -23.0441,-3.20058 4.48079,11.04197 1.92034,13.60242 -30.08535,-11.20199 -32.80584,8.16145 13.60242,9.76174 6.40115,9.76174 -21.2838,1.28022 -26.74211,13.88786 -7.82403,10.11642 12.48221,2.96052 12.48222,2.96053 -22.88407,16.00285 -14.0825,28.16501 27.20483,-1.44025 -11.8421,20.80369 -1.92034,22.88408 3.84068,8.9616 25.92462,-14.08251 0.16002,20.96373 6.56117,14.24254 14.08251,-7.04126 12.3222,-9.92177 -0.16004,15.6828 2.56046,7.04125 7.04125,-0.64011 9.92177,-3.20057 9.92177,-3.20057 19.20341,-12.16217 1.28023,4.80085 1.28023,4.80086 8.32148,4.4808 7.68137,-5.12091 7.68137,-5.12091 9.02162,-13.24253 4.80823,-14.09022 -6.14849,-9.79386 0.32006,-20.08357 10.56188,-13.20236 v 0 l 5.1676,-2.11614 c 1.97388,-12.73599 2.24079,-22.05803 0.80073,-27.96614 -1.8364,-9.37578 -4.09954,-16.61784 -6.78943,-21.72619 z"
         id="path21"
         sodipodi:nodetypes="ccccccccccccccccccccccccccccccccccccccccccccccccccc" /><path
         style="display:inline;fill:#fecb9e;fill-opacity:1;stroke:none;stroke-width:16;stroke-linecap:round;stroke-linejoin:round;stroke-dasharray:none;stroke-opacity:1"
         d="m 645.32703,479.23716 8.27479,0.83592 10.24183,18.5633 8.32148,-3.84068 4.48079,-17.28308 -3.84068,-21.76387 -17.28308,-21.12376 -12.80227,-8.32149 -3.38156,3.24133 c 2.9204,5.85514 5.18354,13.0972 6.78943,21.72619 1.84227,7.73727 0.7168,17.70441 -0.80073,27.96614"
         id="path22"
         sodipodi:nodetypes="ccccccccccc" /></g><g
       inkscape:groupmode="layer"
       id="layer7"
       inkscape:label="Kittel"
       sodipodi:insensitive="true"><path
         style="fill:#aaaaaa;fill-opacity:1;stroke:none;stroke-width:16;stroke-linecap:round;stroke-linejoin:round;stroke-dasharray:none;stroke-opacity:1"
         d="m 556.3045,566.48846 -3.52063,0.32006 -10.56187,13.12233 -23.68422,19.84353 -33.28592,55.0498 -13.4424,50.569 10.88194,30.08536 11.52205,12.80228 14.72262,16.3229 21.12376,11.20199 c -0.21781,-9.79363 2.12928,-17.475 7.04126,-23.0441 l 8.64153,-8.32148 8.64154,-8.32148 17.28308,1.28023 21.12376,1.92034 9.92176,19.52347 9.92177,19.52348 c 21.39145,-11.01389 38.51547,-22.88127 51.37207,-35.60214 10.95776,-11.93439 18.50157,-25.36238 22.63145,-40.28397 1.68614,-11.3822 3.54647,-21.61475 3.1684,-46.62078 0.0322,-13.33961 -3.13623,-26.46584 -9.5052,-39.37871 -8.1366,-9.7293 -17.34006,-18.17837 -27.61037,-25.34722 l -14.93675,-15.38938 c -1.54532,-1.36174 -2.6639,-6.15388 -3.35573,-14.37642 l -16.64296,-7.04125 -11.52205,7.68136 -4.16074,-2.2404 -6.08108,-9.44168 -19.84353,9.76174 z"
         id="path23"
         sodipodi:nodetypes="cccccccccccccccccccccccccccccc" /><path
         style="opacity:1;fill:#aaaaaa;fill-opacity:1;stroke:none;stroke-width:16;stroke-linecap:round;stroke-linejoin:round;stroke-dasharray:none;stroke-opacity:1"
         d="m 512.13664,768.12435 -1.92034,28.16501 -1.92034,28.16501 -3.20057,53.12946 34.09325,4.98429 31.19837,0.77674 10.88194,-0.64012 20.16359,-0.32006 20.16359,-0.32005 h 19.84353 l 24.16422,-0.48009 h 13.12242 l 8.52557,-0.34001 0.0705,-21.25145 c -0.16003,-16.10954 -0.7468,-31.79233 -1.76031,-47.04838 -0.62432,-15.25236 -1.4281,-28.10267 -2.88052,-38.72689 -10.45519,6.50782 -22.19061,11.73542 -35.20626,15.68279 -12.90896,4.37411 -19.63016,5.54766 -20.16359,3.52063 -4.69417,5.44097 -10.24182,10.66856 -16.64296,15.68279 -35.53712,4.39363 -46.96328,3.6427 -34.27849,-2.25279 l -12.24431,0.64012 -9.76174,-9.12162 -9.70286,-9.30604 -1.81919,-6.85684 -12.80228,-6.40114 -10.56188,-5.60099 z"
         id="path24"
         sodipodi:nodetypes="ccccccccccccccccccccccccccc" /><path
         style="fill:#888888;fill-opacity:1;stroke:none;stroke-width:16;stroke-linecap:round;stroke-linejoin:round;stroke-dasharray:none;stroke-opacity:1"
         d="m 634.3984,561.36755 c 0.3978,6.86716 1.51638,11.6593 3.35573,14.37642 l 7.46837,7.69469 c 2.42515,2.49863 4.91461,5.06353 7.46838,7.69469 9.89714,6.82719 19.10059,15.27626 27.61037,25.34722 6.07503,11.72275 9.24343,24.84898 9.5052,39.37871 0.82175,17.47272 -1.23055,31.98787 -3.1684,46.62078 -4.35922,15.32808 -11.90303,28.75607 -22.63145,40.28397 -22.03617,20.73203 -35.80242,26.53984 -51.37207,35.60214 l 12.80228,5.76103 23.0441,-13.4424 23.0441,-13.44239 29.44524,-32.64581 11.52205,-33.28593 2.56046,-29.44524 -8.32148,-44.80797 -20.48365,-25.60456 -10.56188,-6.08108 -10.56188,-6.08108 -14.72262,-9.60171 z"
         id="path25"
         sodipodi:nodetypes="ccccccccccccccccccccc" /><path
         style="fill:#888888;fill-opacity:1;stroke:none;stroke-width:16;stroke-linecap:round;stroke-linejoin:round;stroke-dasharray:none;stroke-opacity:1"
         d="m 570.26808,807.17129 c -5.53742,5.63041 7.92946,6.27466 40.40065,1.93273 6.00376,-4.64108 11.55142,-9.86867 16.64296,-15.68279 -0.41004,2.18058 6.31116,1.00704 20.16359,-3.52063 14.15563,-4.45957 25.89105,-9.68716 35.20626,-15.68279 1.47072,11.96843 2.4309,24.87739 2.88052,38.72689 1.06252,16.58721 1.64929,32.27001 1.76031,47.04838 l -0.0705,21.25145 8.91753,-0.14007 15.20271,-0.48008 15.2027,-0.48009 -0.96017,-31.04553 -0.96017,-31.04553 -1.60028,-32.00569 -1.60029,-32.0057 -8.9616,-62.73117 -5.76103,16.64296 -5.76102,16.64297 -14.72262,16.3229 -14.72262,16.32291 -11.52205,6.72119 -11.52205,6.7212 -11.52205,6.7212 -11.52205,6.7212 -6.40114,-2.88051 -6.40114,-2.88052 -25.60456,24.32433 z"
         id="path26"
         sodipodi:nodetypes="cccccccccccccccccccccccccccc" /></g><g
       inkscape:groupmode="layer"
       id="layer4"
       inkscape:label="Gesicht"><path
         style="fill:#fecb9e;fill-opacity:1;stroke:none;stroke-width:16;stroke-linecap:round;stroke-linejoin:round;stroke-dasharray:none;stroke-opacity:1"
         d="m 617.75544,554.3263 8.32148,3.52063 16.32291,7.68136 15.36273,8.96159 7.36131,4.80086 17.28308,-2.56046 20.64367,-10.72191 16.00285,-22.40398 4.32077,-20.00357 17.4431,-2.08036 6.24112,-15.20271 -8.9616,-10.24183 -19.84353,5.12092 -8.4015,-9.04161 -4.48079,-17.28308 11.60206,-21.04375 -14.72262,-33.92603 -26.24467,-15.36274 -30.72547,1.28023 -1.28023,10.24182 -1.28022,10.24182 12.80227,8.32149 8.64154,10.56188 10.56188,21.44382 1.92034,10.88193 -2.24039,8.64154 -2.2404,8.64154 -8.32148,3.84068 -5.12091,-9.28165 -5.12092,-9.28165 -13.44239,1.28022 -5.28094,6.60118 -5.28094,6.60118 -0.16003,10.04178 -0.16003,10.04179 6.14849,9.79386 -2.40412,7.04511 -2.40411,7.04511 -4.51081,6.62127 -4.51081,6.62126 z"
         id="path28" /><path
         style="fill:#ffffff;fill-opacity:1;stroke:none;stroke-width:16;stroke-linecap:round;stroke-linejoin:round;stroke-dasharray:none;stroke-opacity:1"
         d="m 716.9731,453.8284 v 0 l -5.80103,10.52187 -5.0809,9.96178 1.52027,9.20164 2.24039,8.64154 4.20075,4.5208 4.20075,4.52081 9.92177,-2.56046 9.92176,-2.56046 0.64012,-21.12376 -6.40114,-17.92319 z"
         id="path29" /></g><g
       inkscape:groupmode="layer"
       id="layer8"
       inkscape:label="Hände"><path
         style="fill:#fecb9e;fill-opacity:1;stroke:none;stroke-width:16;stroke-linecap:round;stroke-linejoin:round;stroke-dasharray:none;stroke-opacity:1"
         d="m 554.38416,736.11865 -4.32077,4.16074 -4.32077,4.16074 -4.32077,4.16074 -4.32076,4.16074 -12.32217,20.2436 5.28094,2.8005 6.40114,3.20057 8.22033,10.05741 4.85143,4.65302 4.8514,4.65302 4.8809,4.56081 4.88087,4.56081 12.24431,-0.64012 2.25879,-1.92034 8.38094,-2.24039 12.80228,-12.16217 16.00285,-10.7219 -8.16146,-11.202 -4.96088,-9.76174 -4.96088,-9.76173 -4.96088,-9.76174 -10.56188,-0.96017 -10.56188,-0.96017 z"
         id="path27" /></g><g
       inkscape:groupmode="layer"
       id="layer6"
       inkscape:label="Schatten"
       style="display:inline"><path
         style="display:none;fill:#dddddd;fill-opacity:1;stroke:#666666;stroke-width:16;stroke-linecap:round;stroke-linejoin:round;stroke-dasharray:none;stroke-opacity:1"
         d="m 461.52215,987.05569 c 107.29194,-1.23577 215.24839,-2.83297 325.81799,-0.64011"
         id="path20"
         sodipodi:nodetypes="cc"
         sodipodi:insensitive="true" /><ellipse
         style="fill:#666666;fill-opacity:1;stroke-width:16;stroke-linecap:round;stroke-linejoin:round"
         id="path3"
         cx="641.14886"
         cy="983.3363"
         rx="137.90762"
         ry="14.962463" /></g><g
       inkscape:groupmode="layer"
       id="layer5"
       inkscape:label="Outline"
       sodipodi:insensitive="true"><path
         style="display:inline;fill:none;fill-opacity:1;stroke:#000000;stroke-width:8;stroke-linecap:round;stroke-linejoin:round;stroke-dasharray:none;stroke-opacity:1"
         d="m 660.64308,535.12287 c -7.13637,1.92672 -8.71817,2.92005 -16.55159,-2.48279 -4.59562,-4.28127 -13.18426,-11.18696 -14.814,-18.00085 -1.98728,-6.61451 -2.5207,-13.46906 0.32006,-20.08357 1.33985,-2.67708 2.86012,-8.11805 10.56188,-13.20236 3.9709,-2.76075 10.77211,-3.2675 13.44239,-1.28022 6.43147,5.58426 9.84541,11.77203 10.24183,18.5633 2.77383,2.13371 5.54765,0.85349 8.32148,-3.84068 2.77382,-4.05406 4.26742,-9.81508 4.48079,-17.28308 -0.42674,-9.81508 -1.70697,-17.0697 -3.84068,-21.76387 -4.4808,-8.32148 -10.24183,-15.36273 -17.28308,-21.12376 l -12.80227,-8.32149 c 2.13371,-6.82788 2.98719,-13.65576 2.56045,-20.48364 0,-2.24519 -2.02703,-10.45999 -5.12091,-15.04268 -4.05405,-6.61451 -10.56188,-11.89545 -16.3229,-14.24254 0.53343,9.81438 -0.42675,13.65648 -3.20057,23.52419 -1.60029,-4.69417 -4.26743,-9.38833 -8.00143,-14.0825 -4.26743,-4.26743 -9.17496,-7.68137 -14.72262,-10.24182 -6.18777,-2.77383 -16.42959,-4.69418 -23.0441,-3.20058 l 4.48079,11.04197 c 2.56046,4.42745 2.77383,9.17496 1.92034,13.60242 -4.26742,-3.20057 -14.72262,-8.42816 -30.08535,-11.20199 -12.64225,-0.90683 -23.57753,1.81365 -32.80584,8.16145 l 13.60242,9.76174 c 5.45847,4.2061 7.59219,7.46001 6.40115,9.76174 -7.30797,-0.64012 -14.40257,-0.21338 -21.2838,1.28022 -6.82788,1.28023 -13.76245,4.53414 -20.16359,8.80157 -5.22759,3.09388 -9.70839,7.62803 -14.40255,15.20271 l 24.96443,5.92105 c -7.25462,3.84068 -16.05619,9.60171 -22.88407,16.00285 -6.2376,6.58242 -11.68318,14.84265 -14.0825,28.16501 12.69559,0.80014 21.76387,0.32006 27.20483,-1.44025 -4.26742,8.16145 -10.13513,14.77596 -11.8421,20.80369 -2.56045,4.90754 -2.34708,14.13585 -1.92034,22.88408 -0.21337,5.33428 1.06685,8.32148 3.84068,8.9616 6.61451,-5.12091 15.46942,-10.66857 25.92462,-14.08251 -1.17355,7.468 -0.64012,15.09602 0.16002,20.96373 1.867,6.50782 2.93386,10.61522 6.56117,14.24254 l 14.08251,-7.04126 c 4.74751,-2.2404 8.85491,-5.54766 12.3222,-9.92177 -0.26672,7.14794 -0.32007,12.37554 -0.16004,15.6828 -0.21337,3.77659 0.64012,6.12367 2.56046,7.04125 l 7.04125,-0.64011 19.84354,-6.40114 c 7.98534,-2.92248 14.38647,-6.97654 19.20341,-12.16217 l 2.56046,9.60171 c 0.92594,1.95055 2.12329,5.21769 8.32148,4.4808 l 15.36274,-10.24182 c 3.94737,-4.58748 6.14111,-8.44167 9.02162,-13.24253 2.67635,-3.93355 4.05222,-10.37005 4.80823,-14.09022"
         id="path5"
         sodipodi:nodetypes="cccccccccccccccccccccccccccccccccccccccccccccccccc" /><path
         style="fill:none;fill-opacity:1;stroke:#000000;stroke-width:8;stroke-dasharray:none;stroke-opacity:1"
         d="m 645.28034,405.81986 c 13.22902,-3.41394 23.47085,-3.84069 30.72547,-1.28023 9.60171,3.41394 18.34993,8.53486 26.24467,15.36274 9.17497,12.5889 14.08251,23.89758 14.72262,33.92603 6.75022,-1.90163 11.53167,0.12706 15.36274,3.20057 3.41394,4.37411 5.33428,8.64154 5.76102,12.80228 l 0.64012,5.12091 c 0.82681,7.52134 1.39186,15.07998 -3.77637,21.93312 2.18142,-0.9099 8.13438,-0.16617 12.09785,9.43247 2.56045,5.33428 0.16003,10.72191 -6.24112,15.20271 -6.18776,3.41393 -11.68207,3.78733 -17.4431,2.08036 -0.53343,7.73471 -1.65363,14.40257 -4.32077,20.00357 -3.94737,8.96159 -7.46799,14.88264 -16.00285,22.40398 -6.66785,4.8542 -13.54908,8.42817 -20.64367,10.72191 -6.18777,1.28023 -11.9488,2.13372 -17.28308,2.56046 l -14.72262,-9.60171 -16.00285,-8.32148 c -5.54765,-3.41394 -12.37553,-4.90754 -20.48364,-4.4808"
         id="path6"
         sodipodi:nodetypes="cccccccccccccccccc" /><path
         style="fill:none;fill-opacity:1;stroke:#000000;stroke-width:8;stroke-dasharray:none;stroke-opacity:1"
         d="m 716.9731,453.8284 c -8.74822,5.54766 -13.09566,12.93564 -11.60206,21.04375 0.08,7.14794 1.41358,12.34887 4.48079,17.28308 2.52983,4.36751 5.13086,6.98899 8.4015,9.04161 6.29445,1.92034 12.90896,0.21337 19.84353,-5.12092"
         id="path7"
         sodipodi:nodetypes="ccccc" /><path
         style="fill:none;fill-opacity:1;stroke:#000000;stroke-width:8;stroke-dasharray:none;stroke-opacity:1"
         d="m 718.25333,501.19684 c 4.05405,7.04125 5.76102,14.50924 5.12091,22.40398"
         id="path8"
         sodipodi:nodetypes="cc" /><path
         style="fill:none;fill-opacity:1;stroke:#000000;stroke-width:8;stroke-dasharray:none;stroke-opacity:1"
         d="m 738.73698,474.95216 -32.64581,-0.64011 -29.44525,3.20057"
         id="path9" /><path
         style="fill:none;fill-opacity:1;stroke:#000000;stroke-width:8;stroke-dasharray:none;stroke-opacity:1"
         d="m 556.3045,566.48846 c 2.5479,1.70601 -2.14627,6.1868 -14.0825,13.44239 -9.10175,5.4075 -16.99649,12.02201 -23.68422,19.84353 -12.30232,15.33241 -23.39762,33.68234 -33.28592,55.0498 -8.74823,15.14936 -13.22903,32.0057 -13.4424,50.569 0.64011,10.4552 4.26743,20.48365 10.88194,30.08536 l 23.0441,25.60455 6.40114,7.04126 -3.84068,56.33002 c -1.28023,17.28308 -2.34708,34.9929 -3.20057,53.12946 18.22398,5.18794 43.77246,5.46736 67.43517,5.63494 l 4.09756,-34.76012 4.64083,34.24609 40.32718,-0.64011 h 39.68706 l 34.88621,-0.96017 30.40541,-0.96017 -1.92034,-62.09106 -3.20057,-64.01139 c -1.1202,-21.65719 -2.34709,-42.88764 -8.9616,-62.73117 l 2.56046,-29.44524 c 0.85349,-12.37553 -1.92034,-27.31152 -8.32148,-44.80797 -4.90754,-9.81508 -11.73542,-18.34993 -20.48365,-25.60456 l -21.12376,-12.16216"
         id="path10"
         sodipodi:nodetypes="cccccccccccccccccccccccc" /><path
         style="fill:none;fill-opacity:1;stroke:#000000;stroke-width:8;stroke-linecap:round;stroke-linejoin:round;stroke-dasharray:none;stroke-opacity:1"
         d="m 712.4923,691.31067 c -1.4936,11.73542 -5.33428,22.83073 -11.52205,33.28593 -7.25462,11.94879 -17.0697,22.83073 -29.44524,32.64581 l -46.0882,26.88479 -12.80228,-5.76103 -19.84353,-39.04695 30.72547,-26.24467 18.5633,-17.92319 10.24182,-48.64866"
         id="path11"
         sodipodi:nodetypes="ccccccccc" /><path
         style="fill:none;fill-opacity:1;stroke:#000000;stroke-width:8;stroke-linecap:round;stroke-dasharray:none;stroke-opacity:1"
         d="m 518.53778,638.82133 -3.20057,51.84923 -8.96159,3.84068"
         id="path12" /><path
         style="fill:none;fill-opacity:1;stroke:#000000;stroke-width:8;stroke-dasharray:none;stroke-opacity:1"
         d="m 515.33721,690.67056 39.04695,45.44809 c 6.82788,-2.73633 14.02917,-1.34942 17.28308,1.28023 7.01931,-4.81671 14.06056,-4.17659 21.12376,1.92034"
         id="path13"
         sodipodi:nodetypes="cccc" /><path
         style="fill:none;fill-opacity:1;stroke:#000000;stroke-width:8;stroke-dasharray:none;stroke-opacity:1"
         d="m 512.13664,768.12435 c 4.69417,4.90754 10.66857,7.46799 17.92319,7.68136 4.26743,5.9744 8.53485,8.10811 12.80228,6.40114 1.45483,9.54837 5.29551,13.33571 11.52205,16.16288 1.70697,3.89402 4.4808,6.61451 9.76174,9.12162 7.62802,1.22689 16.6963,-1.17354 22.88407,-4.80085 11.94879,-6.40114 20.48365,-14.50925 25.60456,-24.32433"
         id="path14"
         sodipodi:nodetypes="ccccccc" /><path
         style="fill:none;fill-opacity:1;stroke:#000000;stroke-width:8;stroke-dasharray:none;stroke-opacity:1"
         d="m 554.38416,736.11865 -17.28307,16.64296 c -8.74823,5.76102 -11.09531,13.44239 -7.04126,23.0441"
         id="path15"
         sodipodi:nodetypes="ccc" /><path
         style="fill:none;fill-opacity:1;stroke:#000000;stroke-width:8;stroke-linejoin:round;stroke-dasharray:none;stroke-opacity:1"
         d="m 571.66724,737.39888 c 7.25462,5.76102 10.66856,12.37553 10.24182,19.84353 0.64011,4.69417 -1.92034,7.25463 -7.68137,7.68137 -3.52063,-0.48009 -6.61451,-2.45377 -9.28165,-5.92106 0.85349,4.31044 -1.38691,9.37801 -4.80085,12.3222 -1.84861,1.867 -5.36924,0.32005 -10.56188,-4.64083 0.64011,7.48434 -0.96017,13.19202 -6.7212,15.52276"
         id="path16"
         sodipodi:nodetypes="ccccccc" /><path
         style="fill:none;fill-opacity:1;stroke:#000000;stroke-width:8;stroke-linecap:round;stroke-linejoin:round;stroke-dasharray:none;stroke-opacity:1"
         d="m 588.39483,780.00552 c -0.91957,-3.98241 -4.45379,-5.40436 -9.48246,-4.42589 -4.5714,6.40862 -6.1556,10.85947 -4.7526,13.35255 -3.97234,-5.20885 -7.51793,-6.94393 -10.63678,-5.20523 -6.06332,1.3518 -9.99293,4.62394 -11.78882,9.81642"
         id="path17"
         sodipodi:nodetypes="ccccc" /><path
         style="fill:#000000;fill-opacity:1;stroke:#000000;stroke-width:8;stroke-linecap:round;stroke-linejoin:round;stroke-dasharray:none;stroke-opacity:1"
         d="m 539.18864,882.56812 -2.82339,67.04732 5.43155,4.52629 -2.26314,28.96825 33.94716,2.26315 4.52629,-7.24206 h 5.88418 l 1.35789,5.88417 20.3683,0.45263 15.84201,0.45263 1.35788,-3.62103 -8.59994,-14.93676 -20.82093,-9.95783 1.35788,-5.88418 2.71578,-0.90526 3.96238,-67.23076 z"
         id="path18"
         inkscape:label="Bein links" /><path
         style="fill:#000000;fill-opacity:1;stroke:#000000;stroke-width:8;stroke-linecap:round;stroke-linejoin:round;stroke-dasharray:none;stroke-opacity:1"
         d="m 633.22784,882.06463 2.71577,67.55081 6.33681,8.82627 -1.13157,24.89459 29.64719,2.03683 4.07366,-6.11049 4.52629,0.45263 2.48946,4.52629 26.7051,1.13157 h 23.76302 l 2.26314,-3.62103 -11.99466,-13.80518 -26.70511,-12.22099 v -4.52628 l 1.5842,-1.58421 -1.33174,-68.51098 -61.13104,0.96017 z"
         id="path19"
         inkscape:label="Bein rechts" /></g></g><g
     inkscape:groupmode="layer"
     id="layer9"
     inkscape:label="Maschine"
     sodipodi:insensitive="true"><g
       inkscape:groupmode="layer"
       id="layer14"
       inkscape:label="Zeitungen"
       style="display:inline"
       sodipodi:insensitive="true"><path
         style="display:inline;fill:#eeeeee;fill-opacity:1;stroke:none;stroke-width:8;stroke-linecap:round;stroke-linejoin:round;stroke-dasharray:none;stroke-opacity:1"
         d="m 612.86019,202.79712 -29.87416,-87.37675 142.12548,-48.431292 5.43154,14.031496 151.17806,3.621031 -6.28522,118.549775 z"
         id="path62"
         sodipodi:insensitive="true" /><path
         style="display:inline;fill:none;fill-opacity:1;stroke:#000000;stroke-width:8;stroke-linecap:round;stroke-linejoin:round;stroke-dasharray:none;stroke-opacity:1"
         d="m 612.86019,202.79712 -29.87416,-87.37675 142.12548,-48.431292 5.43154,14.031496 151.17806,3.621031 -6.28522,118.549775 z"
         id="path60"
         sodipodi:insensitive="true" /><path
         style="fill:#666666;fill-opacity:1;stroke:none;stroke-width:8;stroke-linecap:round;stroke-linejoin:round;stroke-dasharray:none;stroke-opacity:1"
         d="m 630.96462,202.8243 -9.50513,-30.37269 47.52603,-17.1999 17.20243,47.65551 z"
         id="path63"
         sodipodi:insensitive="true" /><path
         style="fill:#666666;fill-opacity:1;stroke:#666666;stroke-width:8;stroke-linecap:round;stroke-linejoin:round;stroke-dasharray:none;stroke-opacity:1"
         d="m 728.73254,138.50445 -45.26289,15.38938"
         id="path64"
         sodipodi:insensitive="true" /><path
         style="fill:#666666;fill-opacity:1;stroke:#666666;stroke-width:8;stroke-linecap:round;stroke-linejoin:round;stroke-dasharray:none;stroke-opacity:1"
         d="m 732.8062,153.4412 -44.35763,15.84201"
         id="path65"
         sodipodi:insensitive="true" /><path
         style="fill:#666666;fill-opacity:1;stroke:#666666;stroke-width:8;stroke-linecap:round;stroke-linejoin:round;stroke-dasharray:none;stroke-opacity:1"
         d="m 737.78512,169.28321 -44.35764,16.29464"
         id="path66"
         sodipodi:insensitive="true" /><path
         style="fill:#666666;fill-opacity:1;stroke:#666666;stroke-width:8;stroke-linecap:round;stroke-linejoin:round;stroke-dasharray:none;stroke-opacity:1"
         d="m 743.01225,185.47301 -48.33077,17.44697"
         id="path67"
         sodipodi:insensitive="true" /><path
         style="fill:#666666;fill-opacity:1;stroke:#666666;stroke-width:8;stroke-linecap:round;stroke-linejoin:round;stroke-dasharray:none;stroke-opacity:1"
         d="m 750.14018,142.02662 45.52144,1.51893 -2.40113,59.52244 -23.52317,-0.0353 z"
         id="path68"
         sodipodi:insensitive="true" /><path
         style="fill:#666666;fill-opacity:1;stroke:#666666;stroke-width:8;stroke-linecap:round;stroke-linejoin:round;stroke-dasharray:none;stroke-opacity:1"
         d="m 809.74413,148.18638 50.24894,2.2404"
         id="path69"
         sodipodi:insensitive="true" /><path
         style="fill:#666666;fill-opacity:1;stroke:#666666;stroke-width:8;stroke-linecap:round;stroke-linejoin:round;stroke-dasharray:none;stroke-opacity:1"
         d="m 808.4639,164.50928 50.88906,2.2404"
         id="path70"
         sodipodi:insensitive="true" /><path
         style="fill:#666666;fill-opacity:1;stroke:#666666;stroke-width:8;stroke-linecap:round;stroke-linejoin:round;stroke-dasharray:none;stroke-opacity:1"
         d="m 807.82379,180.83219 49.92889,1.28023"
         id="path71"
         sodipodi:insensitive="true" /><path
         style="fill:#666666;fill-opacity:1;stroke:#666666;stroke-width:8;stroke-linecap:round;stroke-linejoin:round;stroke-dasharray:none;stroke-opacity:1"
         d="m 805.58339,196.99506 49.92889,0.96018"
         id="path72"
         sodipodi:insensitive="true" /><path
         style="display:inline;fill:none;fill-opacity:1;stroke:#000000;stroke-width:8;stroke-linecap:round;stroke-linejoin:round;stroke-dasharray:none;stroke-opacity:1"
         d="M 769.73732,203.03267 730.54305,81.020574"
         id="path61"
         sodipodi:insensitive="true" /><text
         xml:space="preserve"
         style="font-size:33.448px;font-family:Onick;-inkscape-font-specification:Onick;text-align:start;writing-mode:lr-tb;direction:ltr;text-anchor:start;display:inline;fill:#000000;fill-opacity:0.666667;stroke-width:16.724;stroke-linecap:round;stroke-linejoin:round"
         x="528.91241"
         y="353.64825"
         id="text1"
         transform="matrix(0.94360054,-0.33183359,0.33204447,0.94300126,0,0)"
         inkscape:label="text-zeitung1"><tspan
           sodipodi:role="line"
           id="tspan1"
           x="528.91241"
           y="353.64825"
           style="font-style:normal;font-variant:normal;font-weight:600;font-stretch:normal;font-size:33.448px;font-family:Rimouski;-inkscape-font-specification:'Rimouski Semi-Bold';fill:#000000;fill-opacity:0.666667;stroke-width:16.724">ZEITUNG</tspan></text><text
         xml:space="preserve"
         style="font-size:32px;font-family:Onick;-inkscape-font-specification:Onick;text-align:start;writing-mode:lr-tb;direction:ltr;text-anchor:start;display:inline;fill:#000000;fill-opacity:0.666667;stroke-width:16;stroke-linecap:round;stroke-linejoin:round"
         x="754.36908"
         y="74.1754"
         id="text1-5"
         transform="rotate(3.7290709)"
         inkscape:label="text-zeitung2"><tspan
           sodipodi:role="line"
           id="tspan1-9"
           x="754.36908"
           y="74.1754"
           style="font-style:normal;font-variant:normal;font-weight:600;font-stretch:normal;font-size:32px;font-family:Rimouski;-inkscape-font-specification:'Rimouski Semi-Bold';fill:#000000;fill-opacity:0.666667">ZEITUNG</tspan></text></g><g
       inkscape:groupmode="layer"
       id="layer12"
       inkscape:label="Trichter"
       sodipodi:insensitive="true"><path
         style="display:inline;fill:#777777;fill-opacity:1;stroke:none;stroke-width:8;stroke-linecap:round;stroke-linejoin:round;stroke-dasharray:none;stroke-opacity:1"
         d="m 892.11551,384.27734 -51.131,-0.44803 -39.60504,-0.22632 -20.14198,-20.59461 -0.90526,-37.11557 121.07823,-122.66243 -301.45085,-0.45263 121.98349,122.88875 -1.35788,34.62611 7.69469,30.32614 25.15507,32.51477 29.1604,15.46389 58.38913,3.1684 50.98644,0.003 z"
         id="path56" /><path
         style="fill:#666666;fill-opacity:1;stroke:none;stroke-width:8;stroke-linecap:round;stroke-linejoin:round;stroke-dasharray:none;stroke-opacity:1"
         d="m 901.41046,203.23038 -65.85599,-0.0989 -66.53253,122.71747 11.31029,0.0438 121.07823,-122.66243"
         id="path57" /><path
         style="fill:#666666;fill-opacity:1;stroke:none;stroke-width:8;stroke-linecap:round;stroke-linejoin:round;stroke-dasharray:none;stroke-opacity:1"
         d="m 892.11551,384.27734 -11.30848,-0.0991 -3.53092,57.5897 14.69484,8.6e-4 z"
         id="path58" /><g
         inkscape:groupmode="layer"
         id="layer18"
         inkscape:label="Outline"><path
           style="fill:none;fill-opacity:1;stroke:#000000;stroke-width:8;stroke-linecap:round;stroke-linejoin:round;stroke-dasharray:none;stroke-opacity:1"
           d="m 892.11551,384.27734 -51.131,-0.44803 -39.60504,-0.22632 c -9.95783,-3.62103 -17.57708,-10.93853 -20.14198,-20.59461 0,-13.57887 -0.30175,-25.95072 -0.90526,-37.11557 L 901.41046,203.23038 599.95961,202.77775 721.9431,325.6665 c -2.11227,9.35433 -2.26314,21.04724 -1.35788,34.62611 0.90526,11.16485 3.1684,22.17882 7.69469,30.32614 21.84842,38.389 39.77751,42.28128 54.31547,47.97866 18.85954,3.1684 38.32258,4.22453 58.38913,3.1684 l 50.98644,0.003"
           id="path51"
           sodipodi:nodetypes="ccccccccccccc" /><path
           style="fill:none;fill-opacity:1;stroke:#000000;stroke-width:8;stroke-linecap:round;stroke-linejoin:round;stroke-dasharray:none;stroke-opacity:1"
           d="m 840.98451,441.76581 v -57.9365"
           id="path52" /><path
           style="fill:none;fill-opacity:1;stroke:#000000;stroke-width:8;stroke-linecap:round;stroke-linejoin:round;stroke-dasharray:none;stroke-opacity:1"
           d="m 782.59538,438.59741 18.78409,-54.99442"
           id="path53" /><path
           style="fill:none;fill-opacity:1;stroke:#000000;stroke-width:8;stroke-linecap:round;stroke-linejoin:round;stroke-dasharray:none;stroke-opacity:1"
           d="m 728.27991,390.61875 52.95758,-27.61037"
           id="path54" /><path
           style="fill:none;fill-opacity:1;stroke:#000000;stroke-width:8;stroke-linecap:round;stroke-linejoin:round;stroke-dasharray:none;stroke-opacity:1"
           d="M 780.33223,325.89281 721.9431,325.6665"
           id="path55" /></g></g><g
       inkscape:groupmode="layer"
       id="layer13"
       inkscape:label="Rohr"
       style="display:inline"
       sodipodi:insensitive="true"><path
         style="display:inline;fill:#777777;fill-opacity:1;stroke:none;stroke-width:8;stroke-linecap:round;stroke-linejoin:round;stroke-dasharray:none;stroke-opacity:1"
         d="m 1040.1461,233.10389 57.479,0.45263 v -13.57887 -13.57887 l 7.5912,-17.5234 12.3245,-4.20279 13.5731,-0.055 42.3266,-0.17137 49.6542,-0.20102 6.2454,-0.0253 20.3683,22.17882 -0.5658,21.9525 -0.5658,21.95251 26.5919,-0.33948 26.592,-0.33947 0.4527,-34.96558 0.4526,-34.96558 -14.9368,-36.66295 -32.1366,-12.67361 -36.7985,-0.21028 -42.4116,-0.24235 -60.2483,-0.34427 -18.9617,-0.10835 c -16.7062,4.83248 -31.4921,12.22542 -44.3577,22.17881 l -13.1262,36.21032 0.1836,19.0311 z"
         id="path50"
         sodipodi:nodetypes="ccccccccccccccccccccccccccc" /><g
         inkscape:groupmode="layer"
         id="layer17"
         inkscape:label="Outline"><path
           style="display:inline;fill:#555555;fill-opacity:1;stroke:#000000;stroke-width:8;stroke-linecap:round;stroke-linejoin:round;stroke-dasharray:none;stroke-opacity:1"
           d="m 1230.0181,269.36895 c -1.6593,-8.16557 1.2076,-14.52062 8.6009,-19.06516 h 9.9578 l 53.1839,-0.67895 9.7316,0.45263 c 7.2427,4.84723 9.959,11.20322 8.1491,19.06797 z"
           id="path40"
           sodipodi:nodetypes="ccccccc" /><path
           style="display:inline;fill:#555555;fill-opacity:1;stroke:#000000;stroke-width:8;stroke-linecap:round;stroke-linejoin:round;stroke-dasharray:none;stroke-opacity:1"
           d="m 1021.5883,269.88872 v -29.09014 c 0.8655,-5.32032 4.6649,-7.73198 10.9181,-7.56212 l 7.6397,-0.13257 57.4839,0.45263 7.1095,-0.0275 c 6.8399,0.88223 10.0525,4.96508 9.6378,12.24845 v 23.87983 z"
           id="path39"
           sodipodi:nodetypes="ccccccccc" /><path
           style="display:inline;fill:none;fill-opacity:1;stroke:#000000;stroke-width:8;stroke-linecap:round;stroke-linejoin:round;stroke-dasharray:none;stroke-opacity:1"
           d="m 1040.1461,233.10389 c -0.1525,-13.88062 -0.305,-28.96825 -0.4575,-45.26289 1.207,-16.44552 5.5824,-28.51563 13.1262,-36.21032 12.5611,-14.9644 27.5704,-22.60201 44.3577,-22.17881 l 158.4201,0.90525 c 11.014,-0.6035 21.7262,3.62103 32.1366,12.67361 9.2035,9.80696 14.1824,22.02795 14.9368,36.66295 l -0.9053,69.93116"
           id="path41"
           sodipodi:nodetypes="cccccccc" /><path
           style="display:inline;fill:none;fill-opacity:1;stroke:#000000;stroke-width:8;stroke-linecap:round;stroke-linejoin:round;stroke-dasharray:none;stroke-opacity:1"
           d="m 1248.5768,250.30379 1.1316,-43.90501 c 0.4526,-12.82449 -6.3368,-20.21743 -20.3683,-22.17882 l -111.7993,0.45263 c -12.5227,0.90526 -20.2929,8.93942 -19.9157,21.72619 v 27.15774"
           id="path42"
           sodipodi:nodetypes="cccccc" /><path
           style="display:inline;fill:none;fill-opacity:1;stroke:#000000;stroke-width:8;stroke-linecap:round;stroke-linejoin:round;stroke-dasharray:none;stroke-opacity:1"
           d="m 1097.6251,206.39878 -57.7529,0.47332"
           id="path43" /><path
           style="display:inline;fill:none;fill-opacity:1;stroke:#000000;stroke-width:8;stroke-linecap:round;stroke-linejoin:round;stroke-dasharray:none;stroke-opacity:1"
           d="m 1105.2163,188.87538 c -9.9992,-23.51021 -27.4663,-35.92511 -52.4015,-37.2447"
           id="path44"
           sodipodi:nodetypes="cc" /><path
           style="display:inline;fill:none;fill-opacity:1;stroke:#000000;stroke-width:8;stroke-linecap:round;stroke-linejoin:round;stroke-dasharray:none;stroke-opacity:1"
           d="m 1131.1139,184.61764 c 5.8748,-18.29675 4.9097,-37.77414 -14.9797,-55.05742"
           id="path45"
           sodipodi:nodetypes="cc" /><path
           style="display:inline;fill:none;fill-opacity:1;stroke:#000000;stroke-width:8;stroke-linecap:round;stroke-linejoin:round;stroke-dasharray:none;stroke-opacity:1"
           d="m 1176.8421,184.4325 c 10.0348,-15.3985 8.6585,-37.6054 -4.4574,-54.55085"
           id="path46"
           sodipodi:nodetypes="cc" /><path
           style="display:inline;fill:none;fill-opacity:1;stroke:#000000;stroke-width:8;stroke-linecap:round;stroke-linejoin:round;stroke-dasharray:none;stroke-opacity:1"
           d="m 1223.0947,184.24525 c 10.7777,-19.73583 9.5661,-38.89671 -4.3006,-54.09841"
           id="path47"
           sodipodi:nodetypes="cc" /><path
           style="display:inline;fill:none;fill-opacity:1;stroke:#000000;stroke-width:8;stroke-linecap:round;stroke-linejoin:round;stroke-dasharray:none;stroke-opacity:1"
           d="m 1249.7084,206.39878 52.6092,0.2105"
           id="path48" /><path
           style="display:inline;fill:none;fill-opacity:1;stroke:#000000;stroke-width:8;stroke-linecap:round;stroke-linejoin:round;stroke-dasharray:none;stroke-opacity:1"
           d="m 1176.8421,184.4325 c 10.0348,-15.3985 8.6585,-37.6054 -4.4574,-54.55085"
           id="path49"
           sodipodi:nodetypes="cc" /></g></g><g
       inkscape:groupmode="layer"
       id="layer10"
       inkscape:label="Gehäuse"
       sodipodi:insensitive="true"><path
         style="display:inline;fill:#444444;fill-opacity:1;stroke:none;stroke-width:8;stroke-linecap:round;stroke-linejoin:round;stroke-dasharray:none;stroke-opacity:1"
         d="m 866.33273,967.77134 -10e-4,-34.45054 c 6.06512,-14.5679 14.21244,-19.69769 24.44196,-15.38938 l 479.07491,-0.74275 19.7209,-0.0306 85.0955,-0.13193 c 15.4207,0.18548 23.568,5.01352 24.4419,14.48413 l -0.9052,37.06598 -95.5022,-0.12166 -536.36677,-0.68327"
         id="path35"
         sodipodi:nodetypes="cccccccccc" /><path
         style="display:inline;fill:#555555;fill-opacity:1;stroke:none;stroke-width:8;stroke-linecap:round;stroke-linejoin:round;stroke-dasharray:none;stroke-opacity:1"
         d="m 1474.665,917.02616 0.1575,-617.45284 c -4.4003,-16.76917 -16.3491,-27.01099 -35.8464,-30.72547 l -110.0925,0.27455 c 26.7677,5.77842 41.2746,18.91592 43.5207,39.41252 l -2.5557,608.65375 z"
         id="path36"
         sodipodi:nodetypes="ccccccc" /><path
         style="display:inline;fill:#666666;fill-opacity:1;stroke:none;stroke-width:8;stroke-linecap:round;stroke-linejoin:round;stroke-dasharray:none;stroke-opacity:1"
         d="m 890.77369,917.93142 479.07491,-0.74275 2.5557,-608.65375 c -3.5773,-21.66474 -18.0842,-34.80225 -43.5207,-39.41252 l -403.27885,1.00568 c -20.26936,5.23823 -31.36467,16.33354 -33.28592,33.28593 z"
         id="path38"
         sodipodi:nodetypes="ccccccc" /><g
         inkscape:groupmode="layer"
         id="layer16"
         inkscape:label="Outline"><path
           style="fill:none;fill-opacity:1;stroke:#000000;stroke-width:8;stroke-linecap:round;stroke-linejoin:round;stroke-dasharray:none;stroke-opacity:1"
           d="m 1402.6995,968.45461 -0.4552,-38.75484 c -1.2074,-6.17724 -5.4323,-10.3578 -12.6748,-12.54168"
           id="path34"
           sodipodi:nodetypes="ccc" /><path
           style="fill:none;fill-opacity:1;stroke:#000000;stroke-width:8;stroke-linecap:round;stroke-linejoin:round;stroke-dasharray:none;stroke-opacity:1"
           d="m 1369.8486,917.18867 2.5557,-608.65375 c -6.8255,-26.0683 -21.3324,-37.03195 -43.5207,-39.41252"
           id="path33"
           sodipodi:nodetypes="ccc" /><path
           style="fill:none;fill-opacity:1;stroke:#000000;stroke-width:8;stroke-linecap:round;stroke-linejoin:round;stroke-dasharray:none;stroke-opacity:1"
           d="m 1474.665,917.02616 0.1575,-617.45284 c -6.5173,-18.6909 -18.4661,-28.93272 -35.8464,-30.72547 l -513.37135,1.28023 c -18.94087,3.85325 -30.03618,14.94856 -33.28592,33.28593 l -1.54514,614.51741"
           id="path32"
           sodipodi:nodetypes="cccccc" /><path
           style="fill:none;fill-opacity:1;stroke:#000000;stroke-width:8;stroke-linecap:round;stroke-linejoin:round;stroke-dasharray:none;stroke-opacity:1"
           d="m 1498.2017,968.57627 0.9052,-37.06598 c -2.1122,-10.25959 -10.2595,-15.08763 -24.4419,-14.48413 l -583.89131,0.90526 c -16.22825,-1.74056 -24.37557,3.38923 -24.44196,15.38938 l 10e-4,34.45054"
           id="path31"
           sodipodi:nodetypes="cccccc" /><path
           style="fill:none;fill-opacity:1;stroke:#000000;stroke-width:8;stroke-linecap:round;stroke-linejoin:round;stroke-dasharray:none;stroke-opacity:1"
           d="m 826.50038,967.7206 710.62742,0.90526"
           id="path30" /></g></g><g
       inkscape:groupmode="layer"
       id="layer11"
       inkscape:label="Bildschirm"
       sodipodi:insensitive="true"><path
         style="fill:#eeeeee;fill-opacity:1;stroke:#000000;stroke-width:16;stroke-linecap:round;stroke-linejoin:round;stroke-dasharray:none;stroke-opacity:1"
         d="m 930.08555,331.57902 v 436.5577 c -0.85348,15.36274 7.04126,23.68422 23.68422,24.96445 l 346.94173,-0.64012 c 16.4296,0.42674 24.3243,-6.61451 23.6842,-21.12376 l -0.6401,-437.83793 c 0.2134,-14.72262 -7.468,-22.40399 -23.0441,-23.0441 l -345.66151,0.64011 c -16.42959,-0.42674 -24.75107,6.40114 -24.96444,20.48365 z"
         id="path37"
         sodipodi:nodetypes="ccccccccc"
         sodipodi:insensitive="true" /></g><g
       inkscape:groupmode="layer"
       id="layer15"
       inkscape:label="Bedienelemente"
       sodipodi:insensitive="true"><circle
         style="fill:#666666;fill-opacity:1;stroke:#000000;stroke-width:8;stroke-linecap:round;stroke-linejoin:round;stroke-dasharray:none;stroke-opacity:1"
         id="path73"
         r="24.260864"
         cy="854.90698"
         cx="981.64618" /><rect
         style="fill:#777777;fill-opacity:1;stroke:#000000;stroke-width:8;stroke-linecap:round;stroke-linejoin:round;stroke-dasharray:none;stroke-opacity:1"
         id="rect74"
         width="55.369854"
         height="55.049797"
         x="1058.7484"
         y="828.6275" /><rect
         style="fill:#777777;fill-opacity:1;stroke:#000000;stroke-width:8;stroke-linecap:round;stroke-linejoin:round;stroke-dasharray:none;stroke-opacity:1"
         id="rect75"
         width="55.049797"
         height="56.330025"
         x="1136.2023"
         y="828.30743" /><rect
         style="fill:#444444;fill-opacity:1;stroke:#444444;stroke-width:8;stroke-linecap:round;stroke-linejoin:round;stroke-dasharray:none;stroke-opacity:1"
         id="rect76"
         width="105.29874"
         height="57.930313"
         x="1216.2164"
         y="827.6673" /></g></g></svg>
